{"glyphs":{"0":{"ha":794,"x_min":70,"x_max":728,"o":"m 397 -14 q 153 116 236 -14 q 70 497 70 245 q 151 883 70 759 q 397 1007 232 1007 q 643 877 558 1007 q 728 497 728 747 q 646 113 728 239 q 397 -14 564 -14 m 397 90 q 555 187 505 90 q 604 497 604 284 q 554 806 604 709 q 397 903 505 903 q 240 806 289 903 q 192 497 192 710 q 240 187 192 283 q 397 90 289 90 z "},"1":{"ha":794,"x_min":125,"x_max":494,"o":"m 494 0 l 374 0 l 374 693 q 380 864 374 805 q 327 815 360 843 l 189 701 l 125 783 l 393 992 l 494 992 l 494 0 z "},"2":{"ha":794,"x_min":68,"x_max":723,"o":"m 723 0 l 68 0 l 68 102 l 328 364 q 473 521 431 469 q 536 625 515 574 q 557 735 557 676 q 510 857 557 813 q 382 901 463 901 q 263 880 317 901 q 144 807 209 858 l 79 889 q 382 1006 218 1006 q 602 935 522 1006 q 683 742 682 863 q 653 603 683 669 q 574 475 624 537 q 429 321 524 413 l 222 117 l 222 111 l 723 111 l 723 0 z "},"3":{"ha":794,"x_min":63,"x_max":716,"o":"m 480 522 l 480 517 q 656 442 596 502 q 716 282 716 382 q 618 64 716 142 q 336 -14 519 -14 q 63 41 171 -14 l 63 155 q 198 106 126 123 q 337 89 271 89 q 526 138 463 89 q 589 285 589 186 q 519 416 589 372 q 311 460 450 460 l 215 460 l 215 564 l 312 564 q 495 614 430 564 q 561 751 560 665 q 512 863 560 823 q 380 903 464 903 q 257 884 314 903 q 130 820 199 866 l 69 903 q 378 1006 203 1006 q 605 940 525 1006 q 686 760 686 873 q 633 605 686 666 q 480 522 581 543 z "},"4":{"ha":794,"x_min":30,"x_max":768,"o":"m 768 225 l 623 225 l 623 0 l 505 0 l 505 225 l 30 225 l 30 330 l 496 998 l 623 998 l 623 335 l 768 335 l 768 225 m 505 335 l 505 648 q 512 867 505 730 l 507 867 q 447 758 483 814 l 149 335 l 505 335 z "},"5":{"ha":794,"x_min":88,"x_max":716,"o":"m 88 41 l 88 156 q 209 108 137 126 q 347 90 280 90 q 527 145 463 90 q 591 304 591 201 q 529 455 591 405 q 342 506 467 506 q 173 485 269 506 l 112 524 l 149 992 l 647 992 l 647 881 l 254 881 l 230 593 q 382 608 315 608 q 627 530 537 608 q 716 317 716 452 q 619 74 716 162 q 345 -14 522 -14 q 198 0 265 -14 q 88 41 132 14 z "},"6":{"ha":794,"x_min":75,"x_max":728,"o":"m 652 994 l 652 889 q 532 906 601 906 q 289 809 372 906 q 197 505 206 712 l 205 505 q 303 591 243 562 q 441 621 363 621 q 650 541 572 621 q 728 319 728 460 q 642 76 728 165 q 413 -14 557 -14 q 167 102 259 -14 q 75 424 75 217 q 189 860 75 715 q 530 1006 302 1006 q 652 994 602 1006 m 607 319 q 558 471 607 417 q 416 525 509 525 q 302 497 353 525 q 225 428 252 470 q 199 343 199 387 q 226 216 199 275 q 302 122 254 156 q 412 89 350 89 q 556 149 505 89 q 607 319 607 209 z "},"7":{"ha":794,"x_min":62,"x_max":727,"o":"m 190 0 l 597 881 l 62 881 l 62 992 l 727 992 l 727 897 l 324 0 l 190 0 z "},"8":{"ha":794,"x_min":69,"x_max":726,"o":"m 505 525 q 674 404 623 467 q 726 257 726 340 q 638 60 726 134 q 401 -14 550 -14 q 155 56 240 -14 q 69 253 69 125 q 120 405 69 338 q 275 518 172 471 q 142 630 184 569 q 101 770 100 692 q 182 942 100 878 q 397 1006 264 1006 q 613 942 532 1006 q 694 768 694 878 q 648 634 694 694 q 505 525 602 574 m 402 572 q 533 655 493 610 q 573 764 573 701 q 525 869 573 831 q 395 907 477 907 q 268 869 315 907 q 220 764 220 830 q 258 660 220 704 q 402 572 297 616 m 376 468 q 233 374 277 426 q 189 252 189 323 q 243 129 189 174 q 398 83 298 83 q 551 130 495 83 q 606 256 606 176 q 557 368 606 319 q 398 460 508 417 l 376 468 z "},"9":{"ha":794,"x_min":67,"x_max":720,"o":"m 139 0 l 139 104 q 261 86 195 86 q 506 183 423 86 q 596 486 589 281 l 588 486 q 351 371 512 371 q 143 451 220 371 q 67 671 67 532 q 153 915 67 825 q 384 1006 239 1006 q 628 890 536 1006 q 720 568 720 775 q 606 132 720 277 q 264 -14 492 -14 q 195 -10 232 -14 q 139 0 158 -6 m 188 672 q 236 520 188 573 q 378 468 285 468 q 488 492 437 468 q 567 560 538 517 q 596 649 596 603 q 570 773 595 713 q 495 868 544 833 q 384 903 447 903 q 239 842 291 903 q 188 672 188 782 z "}," ":{"ha":361,"x_min":0,"x_max":0,"o":""},"ஂ":{"ha":489,"x_min":77,"x_max":412,"o":"m 244 1171 q 365 1123 317 1171 q 412 1003 412 1076 q 365 883 412 930 q 244 836 318 836 q 124 883 170 836 q 77 1003 77 929 q 124 1124 77 1077 q 244 1171 171 1171 m 244 917 q 305 941 281 917 q 329 1003 329 965 q 305 1065 329 1041 q 244 1090 281 1090 q 184 1066 208 1090 q 160 1003 160 1042 q 183 941 160 965 q 244 917 207 917 z "},"ஃ":{"ha":1244,"x_min":62,"x_max":1182,"o":"m 380 917 q 447 1101 380 1031 q 623 1171 514 1171 q 797 1101 730 1171 q 864 917 864 1031 q 798 732 864 802 q 625 661 731 661 q 447 731 514 661 q 380 917 380 800 m 490 915 q 527 800 490 842 q 623 758 564 758 q 717 800 681 758 q 753 918 753 842 q 716 1033 753 991 q 623 1074 679 1074 q 527 1032 564 1074 q 490 915 490 989 m 62 240 q 130 425 62 355 q 305 494 197 494 q 479 424 412 494 q 547 240 547 354 q 480 56 547 126 q 308 -15 414 -15 q 130 54 197 -15 q 62 240 62 123 m 173 238 q 210 124 173 166 q 306 81 247 81 q 400 124 363 81 q 436 241 436 166 q 398 356 436 314 q 305 397 361 397 q 210 355 247 397 q 173 238 173 313 m 698 240 q 765 425 698 355 q 941 494 832 494 q 1115 424 1048 494 q 1182 240 1182 353 q 1116 56 1182 126 q 943 -15 1049 -15 q 765 54 832 -15 q 698 240 698 123 m 808 238 q 845 124 808 166 q 941 81 882 81 q 1035 124 999 81 q 1072 241 1072 166 q 1034 356 1072 314 q 941 397 996 397 q 845 355 882 397 q 808 238 808 313 z "},"அ":{"ha":1556,"x_min":41,"x_max":1435,"o":"m 1435 -214 l 1314 -214 l 1314 144 l 1093 144 q 862 -89 1025 -5 q 473 -172 698 -172 l 454 -172 q 151 -103 260 -172 q 41 83 41 -34 q 62 165 41 128 q 131 223 83 201 q 285 244 178 244 l 1001 244 q 1015 349 1015 295 q 967 542 1015 458 q 835 662 920 625 q 869 550 869 606 q 810 392 869 450 q 648 334 750 334 q 480 392 544 334 q 417 551 417 450 q 494 724 417 662 q 699 787 572 787 q 926 730 827 787 q 1080 570 1025 673 q 1135 350 1135 468 q 1124 244 1135 294 l 1314 244 l 1314 769 l 1435 769 l 1435 -214 m 714 690 l 700 690 q 574 657 622 694 q 527 552 527 620 q 559 463 527 496 q 646 429 591 429 q 730 462 699 429 q 761 556 761 496 q 714 690 761 635 m 959 144 l 304 144 q 214 139 237 144 q 176 120 190 134 q 161 77 161 105 q 237 -33 161 6 q 454 -71 313 -71 l 475 -71 q 771 -16 648 -71 q 959 144 895 39 m 889 -446 z "},"ஆ":{"ha":1824,"x_min":41,"x_max":1818,"o":"m 1435 97 q 1590 140 1503 140 q 1706 112 1652 140 q 1789 31 1760 83 q 1818 -90 1818 -21 q 1754 -277 1818 -196 q 1569 -402 1689 -358 q 1289 -446 1449 -446 l 1280 -446 q 1000 -386 1099 -446 q 900 -214 900 -325 q 951 -101 900 -146 q 1089 -57 1002 -57 q 1238 -85 1158 -57 l 1218 -176 q 1097 -153 1145 -153 q 1030 -170 1054 -153 q 1006 -218 1006 -186 q 1077 -312 1006 -277 q 1286 -346 1148 -346 l 1296 -346 q 1591 -276 1481 -346 q 1702 -87 1702 -205 q 1667 9 1702 -26 q 1571 43 1632 43 q 1435 2 1493 43 l 1435 -172 l 1314 -172 l 1314 144 l 1093 144 q 862 -89 1025 -5 q 473 -172 698 -172 l 454 -172 q 151 -103 260 -172 q 41 83 41 -34 q 62 165 41 128 q 131 223 83 201 q 285 244 178 244 l 1001 244 q 1015 349 1015 295 q 967 542 1015 458 q 835 662 920 625 q 869 550 869 606 q 810 392 869 450 q 648 334 750 334 q 480 392 544 334 q 417 551 417 450 q 494 724 417 662 q 699 787 572 787 q 927 729 828 787 q 1081 569 1027 671 q 1135 350 1135 467 q 1124 244 1135 294 l 1314 244 l 1314 769 l 1435 769 l 1435 97 m 714 690 l 700 690 q 574 657 622 694 q 527 552 527 620 q 559 463 527 496 q 646 429 591 429 q 730 462 699 429 q 761 556 761 496 q 714 690 761 635 m 959 144 l 304 144 q 214 139 237 144 q 176 120 190 134 q 161 77 161 105 q 237 -33 161 6 q 454 -71 313 -71 l 475 -71 q 771 -16 648 -71 q 959 144 895 39 z "},"இ":{"ha":1564,"x_min":68,"x_max":1442,"o":"m 812 677 q 854 544 854 617 q 793 395 854 451 q 628 339 733 339 q 466 399 530 339 q 401 553 401 460 q 485 725 401 663 q 713 787 569 787 q 1009 672 903 787 q 1115 353 1115 557 q 1078 112 1115 235 q 1216 -20 1168 57 q 1264 -186 1264 -97 q 1186 -378 1264 -309 q 969 -446 1109 -446 q 666 -377 817 -446 q 356 -446 515 -446 q 145 -377 222 -446 q 68 -186 68 -308 q 104 -37 68 -105 q 213 85 140 31 q 130 309 155 204 q 104 527 104 414 q 189 856 104 706 q 428 1088 273 1006 q 788 1171 582 1171 q 1147 1095 1004 1171 q 1365 858 1289 1019 q 1442 435 1442 696 l 1442 0 l 1322 0 l 1322 378 q 1268 771 1322 625 q 1099 991 1215 917 q 788 1066 983 1066 q 496 999 625 1066 q 295 806 366 932 q 224 511 224 680 q 245 330 224 418 q 311 142 266 242 q 665 210 465 210 q 968 163 833 210 q 994 348 994 251 q 945 560 994 473 q 812 677 897 647 m 698 690 l 688 690 q 559 654 606 690 q 511 554 511 618 q 544 466 511 499 q 631 433 576 433 q 714 467 684 433 q 745 559 745 500 q 698 690 745 635 m 663 -259 q 826 -118 754 -203 q 939 66 897 -33 q 668 109 825 109 q 356 50 483 109 q 492 -126 415 -49 q 663 -259 568 -203 m 775 -315 q 958 -345 859 -345 q 1096 -303 1049 -345 q 1142 -180 1142 -261 q 1117 -77 1142 -126 q 1040 12 1091 -27 q 927 -173 994 -91 q 775 -315 861 -254 m 265 -9 q 189 -178 189 -79 q 235 -303 189 -261 q 372 -345 281 -345 q 465 -339 425 -345 q 555 -315 506 -333 q 397 -183 469 -260 q 265 -9 324 -106 z "},"ஈ":{"ha":981,"x_min":122,"x_max":946,"o":"m 122 769 l 946 769 l 946 669 l 671 669 l 671 0 l 550 0 l 550 669 l 242 669 l 242 0 l 122 0 l 122 769 m 484 386 q 458 322 484 347 q 396 297 433 297 q 333 322 358 297 q 308 386 308 347 q 333 448 308 423 q 396 473 358 473 q 459 449 434 473 q 484 386 484 424 m 913 386 q 888 322 913 348 q 825 297 863 297 q 761 322 786 297 q 736 386 736 348 q 762 448 736 423 q 825 473 787 473 q 888 448 863 473 q 913 386 913 423 z "},"உ":{"ha":1482,"x_min":79,"x_max":1459,"o":"m 1459 100 l 1459 0 l 266 0 q 133 33 178 0 q 87 131 87 66 q 141 230 87 197 q 313 275 195 263 l 414 285 q 581 317 515 295 q 682 379 647 340 q 717 485 717 418 q 656 622 717 567 q 484 686 595 676 q 532 544 532 619 q 472 395 532 450 q 306 339 411 339 q 144 399 208 339 q 79 553 79 460 q 169 726 79 665 q 414 787 258 787 q 726 705 616 787 q 836 485 836 624 q 797 335 836 395 q 675 240 759 275 q 429 188 592 204 l 317 177 q 243 166 267 172 q 212 153 219 160 q 204 132 204 145 q 215 108 204 115 q 252 100 226 100 l 1459 100 m 376 690 l 366 690 q 237 654 284 690 q 189 554 189 618 q 222 467 189 500 q 309 433 254 433 q 393 467 361 433 q 424 559 424 500 q 376 690 424 633 z "},"ஊ":{"ha":2139,"x_min":79,"x_max":2075,"o":"m 1514 719 l 1514 769 l 2075 769 l 2075 674 l 1912 674 l 1912 200 l 1798 200 l 1798 674 l 1610 674 l 1610 200 l 1496 200 l 1496 597 q 1404 670 1450 650 q 1302 690 1359 690 q 1149 641 1211 690 q 1072 503 1088 591 q 1204 553 1135 553 q 1335 504 1285 553 q 1385 374 1385 454 q 1333 235 1385 286 q 1192 183 1280 183 q 1028 253 1090 183 q 966 452 966 323 q 1007 630 966 554 q 1127 747 1048 706 q 1308 788 1206 788 q 1417 772 1369 788 q 1514 719 1466 757 m 1069 404 q 1192 272 1084 272 q 1256 297 1232 272 q 1281 365 1281 322 q 1254 435 1281 409 q 1181 462 1226 462 q 1069 404 1122 462 m 2075 100 l 2075 0 l 266 0 q 133 33 178 0 q 87 131 87 66 q 141 230 87 197 q 313 275 195 263 l 414 285 q 581 317 515 295 q 682 379 647 340 q 717 485 717 418 q 656 622 717 567 q 484 686 595 676 q 532 544 532 619 q 472 395 532 450 q 306 339 411 339 q 144 399 208 339 q 79 553 79 460 q 169 726 79 665 q 414 787 258 787 q 726 705 616 787 q 836 485 836 624 q 797 335 836 395 q 675 240 759 275 q 429 188 592 204 l 317 177 q 243 166 267 172 q 212 153 219 160 q 204 132 204 145 q 215 108 204 115 q 252 100 226 100 l 2075 100 m 376 690 l 366 690 q 237 654 284 690 q 189 554 189 618 q 222 467 189 500 q 309 433 254 433 q 393 467 361 433 q 424 559 424 500 q 376 690 424 633 z "},"எ":{"ha":1112,"x_min":79,"x_max":1089,"o":"m 1089 769 l 1089 669 l 854 669 l 854 0 l 733 0 l 733 669 l 610 669 q 398 644 477 669 q 266 556 320 619 q 196 404 212 492 q 362 456 275 456 q 526 395 465 456 q 587 229 587 334 q 524 50 587 115 q 351 -16 460 -16 q 154 74 229 -16 q 79 332 79 164 q 136 563 79 466 q 302 714 193 660 q 617 769 412 769 l 1089 769 m 190 294 q 237 134 194 189 q 354 78 279 78 q 440 114 408 78 q 473 216 473 150 q 437 320 473 282 q 342 358 401 358 q 190 294 264 358 z "},"ஏ":{"ha":1112,"x_min":79,"x_max":1089,"o":"m 1089 769 l 1089 669 l 854 669 l 854 0 l 544 -295 l 465 -220 l 733 34 l 733 669 l 610 669 q 398 644 476 669 q 267 556 319 619 q 197 404 214 493 q 362 456 275 456 q 526 395 465 456 q 587 229 587 334 q 524 50 587 115 q 351 -16 460 -16 q 154 74 229 -16 q 79 332 79 164 q 136 563 79 466 q 302 714 193 660 q 617 769 412 769 l 1089 769 m 190 294 q 237 134 194 189 q 354 78 279 78 q 440 114 408 78 q 473 216 473 150 q 437 320 473 282 q 342 358 401 358 q 190 294 264 358 m 889 -446 z "},"ஐ":{"ha":1420,"x_min":87,"x_max":1333,"o":"m 593 87 q 296 39 381 87 q 210 -129 210 -10 q 280 -289 210 -233 q 472 -345 351 -345 q 620 -315 570 -345 q 692 -238 671 -286 q 713 -101 713 -190 l 713 -15 l 833 -15 l 833 -65 q 883 -279 833 -214 q 1040 -345 933 -345 q 1167 -293 1122 -345 q 1212 -146 1212 -242 q 1201 -56 1212 -109 q 1177 22 1191 -4 l 1295 63 q 1325 -47 1317 1 q 1333 -151 1333 -96 q 1252 -367 1333 -287 q 1041 -446 1171 -446 q 772 -291 842 -446 q 654 -407 732 -367 q 470 -446 576 -446 q 269 -407 355 -446 q 135 -296 182 -367 q 87 -138 87 -224 q 136 40 87 -32 q 291 150 184 112 q 592 188 397 188 l 723 188 q 1028 215 931 188 q 1168 301 1126 242 q 1210 465 1210 360 q 1155 628 1210 568 q 1008 687 1099 687 q 905 659 943 687 q 850 582 867 631 q 833 444 833 534 l 833 285 l 713 285 l 713 407 q 653 622 713 553 q 469 690 593 690 q 370 682 410 690 q 510 609 458 665 q 562 475 562 553 q 496 315 562 375 q 327 255 431 255 q 151 317 215 255 q 87 479 87 378 q 135 638 87 568 q 270 748 183 708 q 459 788 357 788 q 765 633 683 788 q 1012 788 837 788 q 1247 700 1161 788 q 1333 465 1333 611 q 1279 257 1333 340 q 1105 131 1225 174 q 752 87 985 87 l 593 87 m 255 622 q 197 476 197 568 q 230 382 197 416 q 325 349 262 349 q 414 381 380 349 q 448 465 448 413 q 395 576 448 532 q 255 622 343 620 z "},"ஒ":{"ha":1369,"x_min":73,"x_max":1296,"o":"m 869 388 q 789 307 817 359 q 760 193 760 256 q 797 57 760 113 q 902 -25 833 1 q 1089 -51 970 -51 l 1217 -51 l 1217 -151 l 974 -151 q 936 -212 956 -174 q 784 -392 871 -338 q 568 -446 696 -446 q 366 -382 442 -446 q 289 -201 289 -317 q 310 -84 289 -144 q 372 26 331 -25 l 475 -23 q 424 -117 439 -76 q 410 -199 410 -157 q 578 -345 410 -345 q 679 -325 631 -345 q 763 -261 726 -304 q 823 -178 801 -218 q 863 -117 844 -139 q 704 5 760 -73 q 648 191 648 84 q 684 336 648 266 q 784 447 720 406 q 926 488 848 488 q 993 480 958 488 q 948 307 948 384 q 1063 188 948 188 q 1147 229 1117 188 q 1177 340 1177 270 q 1119 524 1177 446 q 951 644 1060 602 q 699 685 842 685 q 386 634 513 685 q 208 490 258 584 q 343 532 276 532 q 497 475 441 532 q 553 319 553 417 q 492 150 553 211 q 325 90 431 90 q 145 166 218 90 q 73 373 73 243 q 140 584 73 492 q 344 732 208 675 q 697 788 480 788 q 1136 664 976 788 q 1296 356 1296 540 q 1237 160 1296 231 q 1063 90 1177 90 q 905 139 962 90 q 848 281 848 189 q 869 388 848 344 m 182 372 q 223 233 182 282 q 332 184 264 184 q 410 216 381 184 q 439 307 439 249 q 407 400 439 366 q 320 434 375 434 q 182 372 249 434 z "},"ஓ":{"ha":1369,"x_min":73,"x_max":1296,"o":"m 869 388 q 789 307 817 359 q 760 193 760 256 q 797 57 760 113 q 902 -25 833 1 q 1089 -51 970 -51 l 1217 -51 l 1217 -151 l 974 -151 q 936 -212 956 -174 q 784 -392 871 -338 q 568 -446 696 -446 l 539 -446 q 305 -384 391 -446 q 218 -212 218 -322 q 280 -66 218 -122 q 440 -10 342 -10 q 605 -66 545 -10 q 665 -205 665 -123 q 616 -343 665 -282 q 734 -290 687 -331 q 823 -178 782 -249 q 863 -117 845 -138 q 704 4 761 -75 q 648 191 648 83 q 684 336 648 266 q 784 447 720 406 q 926 488 848 488 q 993 480 958 488 q 948 307 948 384 q 1063 188 948 188 q 1147 229 1117 188 q 1177 340 1177 270 q 1119 524 1177 446 q 951 644 1060 602 q 699 685 842 685 q 386 634 513 685 q 208 490 258 584 q 343 532 276 532 q 497 475 441 532 q 553 319 553 417 q 492 150 553 211 q 325 90 431 90 q 145 166 218 90 q 73 373 73 243 q 140 584 73 492 q 344 732 208 675 q 697 788 480 788 q 1136 664 976 788 q 1296 356 1296 540 q 1237 160 1296 231 q 1063 90 1177 90 q 905 139 962 90 q 848 281 848 189 q 869 388 848 344 m 182 372 q 223 233 182 282 q 332 184 264 184 q 410 216 381 184 q 439 307 439 249 q 407 400 439 366 q 320 434 375 434 q 182 372 249 434 m 496 -349 q 551 -223 551 -294 q 521 -137 551 -168 q 437 -106 492 -106 q 360 -134 390 -106 q 331 -216 331 -163 q 373 -311 331 -277 q 496 -349 414 -345 z "},"ஔ":{"ha":2848,"x_min":73,"x_max":2825,"o":"m 869 388 q 789 307 817 359 q 760 193 760 256 q 797 57 760 113 q 902 -25 833 1 q 1089 -51 970 -51 l 1217 -51 l 1217 -151 l 974 -151 q 936 -212 956 -174 q 784 -392 871 -338 q 568 -446 696 -446 q 366 -382 442 -446 q 289 -201 289 -317 q 310 -84 289 -144 q 372 26 331 -25 l 475 -23 q 424 -117 439 -76 q 410 -199 410 -157 q 578 -345 410 -345 q 679 -325 631 -345 q 763 -261 726 -304 q 823 -178 801 -218 q 863 -117 844 -139 q 704 5 760 -73 q 648 191 648 84 q 684 336 648 266 q 784 447 720 406 q 926 488 848 488 q 993 480 958 488 q 948 307 948 384 q 1063 188 948 188 q 1147 229 1117 188 q 1177 340 1177 270 q 1119 524 1177 446 q 951 644 1060 602 q 699 685 842 685 q 386 634 513 685 q 208 490 258 584 q 343 532 276 532 q 497 475 441 532 q 553 319 553 417 q 492 150 553 211 q 325 90 431 90 q 145 166 218 90 q 73 373 73 243 q 140 584 73 492 q 344 732 208 675 q 697 788 480 788 q 1136 664 976 788 q 1296 356 1296 540 q 1237 160 1296 231 q 1063 90 1177 90 q 905 139 962 90 q 848 281 848 189 q 869 388 848 344 m 182 372 q 223 233 182 282 q 332 184 264 184 q 410 216 381 184 q 439 307 439 249 q 407 400 439 366 q 320 434 375 434 q 182 372 249 434 m 2124 699 l 2124 769 l 2825 769 l 2825 669 l 2589 669 l 2589 0 l 2469 0 l 2469 669 l 2227 669 l 2227 0 l 2107 0 l 2107 568 q 1996 657 2056 629 q 1855 685 1935 685 q 1658 609 1739 685 q 1556 404 1577 533 q 1724 456 1636 456 q 1888 395 1827 456 q 1948 229 1948 334 q 1885 50 1948 115 q 1713 -16 1822 -16 q 1516 76 1590 -16 q 1441 340 1441 169 q 1495 578 1441 477 q 1647 734 1548 680 q 1868 788 1745 788 q 2005 767 1944 788 q 2124 699 2066 747 m 1552 294 q 1600 133 1558 188 q 1716 78 1642 78 q 1802 114 1769 78 q 1834 216 1834 150 q 1799 320 1834 282 q 1704 358 1763 358 q 1552 294 1626 358 z "},"க":{"ha":1145,"x_min":68,"x_max":1078,"o":"m 222 769 l 948 769 l 948 669 l 688 669 l 688 456 l 726 456 q 994 392 910 456 q 1078 211 1078 328 q 1015 47 1078 105 q 836 -10 952 -10 q 767 -5 805 -10 q 699 10 729 1 l 724 102 q 819 87 773 87 q 924 119 890 87 q 958 217 958 150 q 905 323 958 288 q 720 359 851 359 l 688 359 l 688 313 q 647 107 688 173 q 537 13 606 41 q 363 -16 467 -16 q 151 47 233 -16 q 68 216 68 110 q 106 341 68 290 q 222 421 144 392 l 222 769 m 460 456 l 570 456 l 570 669 l 331 669 l 331 448 q 460 456 388 456 m 570 359 l 451 359 q 250 325 312 359 q 188 213 188 292 q 237 119 188 153 q 373 85 287 85 q 525 136 480 85 q 570 296 570 188 l 570 359 z "},"ங":{"ha":1451,"x_min":122,"x_max":1329,"o":"m 122 769 l 840 769 l 840 669 l 597 669 l 597 445 q 774 503 680 503 q 941 446 878 503 q 1003 294 1003 388 q 938 100 1003 179 l 1208 100 l 1208 769 l 1329 769 l 1329 0 l 477 0 l 477 100 l 805 100 q 864 183 846 141 q 883 273 883 224 q 849 369 883 336 q 754 402 814 402 q 597 342 676 402 l 597 199 l 477 199 l 477 669 l 242 669 l 242 0 l 122 0 l 122 769 z "},"ச":{"ha":1004,"x_min":68,"x_max":948,"o":"m 222 769 l 948 769 l 948 669 l 688 669 l 688 456 l 948 456 l 948 359 l 688 359 l 688 313 q 647 107 688 173 q 537 13 606 41 q 363 -16 467 -16 q 211 14 279 -16 q 105 95 142 43 q 68 216 68 148 q 106 341 68 290 q 222 421 144 392 l 222 769 m 460 456 l 570 456 l 570 669 l 331 669 l 331 448 q 460 456 388 456 m 570 359 l 451 359 q 250 325 312 359 q 188 213 188 292 q 237 119 188 153 q 373 85 287 85 q 525 136 480 85 q 570 296 570 188 l 570 359 z "},"ஜ":{"ha":1420,"x_min":87,"x_max":1333,"o":"m 911 -125 q 763 -255 844 -156 q 592 -405 673 -364 q 412 -446 510 -446 q 174 -361 260 -446 q 87 -138 87 -275 q 136 40 87 -32 q 291 150 184 112 q 592 188 397 188 l 723 188 q 1028 215 931 188 q 1168 301 1126 242 q 1210 465 1210 360 q 1155 628 1210 568 q 1008 687 1099 687 q 905 659 943 687 q 850 582 867 631 q 833 444 833 534 l 833 285 l 713 285 l 713 407 q 653 622 713 553 q 469 690 593 690 q 370 682 410 690 q 510 609 458 665 q 562 475 562 553 q 496 315 562 375 q 327 255 431 255 q 151 317 215 255 q 87 479 87 378 q 135 638 87 568 q 270 748 183 708 q 459 788 357 788 q 765 633 683 788 q 1012 788 837 788 q 1247 700 1161 788 q 1333 465 1333 611 q 1279 257 1333 340 q 1105 131 1225 174 q 752 87 985 87 l 593 87 q 296 39 381 87 q 210 -129 210 -10 q 266 -289 210 -233 q 406 -345 321 -345 q 498 -331 458 -345 q 574 -292 538 -317 q 664 -206 610 -266 q 782 -92 732 -132 q 894 -31 832 -52 q 1044 -10 956 -10 q 1182 -38 1118 -10 q 1280 -119 1245 -66 q 1314 -241 1314 -171 q 1252 -389 1314 -332 q 1093 -446 1190 -446 q 927 -390 987 -446 q 867 -251 867 -334 q 911 -125 867 -182 m 255 622 q 197 476 197 568 q 230 382 197 416 q 325 349 262 349 q 414 381 380 349 q 448 465 448 413 q 396 576 448 533 q 255 622 345 620 m 1036 -107 q 982 -233 982 -163 q 1011 -320 982 -289 q 1096 -351 1041 -351 q 1172 -322 1143 -351 q 1202 -241 1202 -294 q 1036 -107 1202 -116 z "},"ஞ":{"ha":1682,"x_min":94,"x_max":1614,"o":"m 276 769 l 379 709 q 214 226 214 460 l 214 208 q 381 -194 214 -49 q 863 -339 549 -339 l 882 -339 q 1331 -221 1171 -339 q 1491 117 1491 -103 q 1452 284 1491 227 q 1339 342 1413 342 q 1206 293 1276 342 l 1206 0 l 1086 0 l 1086 669 l 962 669 q 752 645 831 669 q 620 557 674 621 q 549 405 565 494 q 714 456 627 456 q 878 395 817 456 q 939 229 939 334 q 876 50 939 115 q 704 -16 812 -16 q 506 74 581 -16 q 431 332 431 165 q 487 559 431 463 q 652 713 543 656 q 970 769 761 769 l 1442 769 l 1442 669 l 1206 669 l 1206 395 q 1361 443 1275 443 q 1545 355 1476 443 q 1614 115 1614 268 q 1527 -189 1614 -63 q 1274 -380 1440 -315 q 889 -446 1107 -446 l 844 -446 q 433 -367 601 -446 q 180 -138 266 -288 q 94 208 94 12 l 94 237 q 142 500 94 360 q 276 769 191 640 m 542 294 q 588 134 546 191 q 706 78 631 78 q 792 114 760 78 q 825 216 825 150 q 789 320 825 282 q 694 358 753 358 q 542 294 616 358 z "},"ட":{"ha":962,"x_min":122,"x_max":939,"o":"m 939 0 l 122 0 l 122 769 l 242 769 l 242 100 l 939 100 l 939 0 z "},"ண":{"ha":2290,"x_min":79,"x_max":2267,"o":"m 984 630 q 1105 463 1064 556 q 1145 263 1145 370 q 1087 56 1145 129 q 920 -16 1028 -16 q 750 56 810 -16 q 690 258 690 128 q 723 457 690 367 q 823 620 756 547 q 695 669 765 652 q 553 685 625 685 q 315 610 410 685 q 195 404 220 536 q 362 456 275 456 q 526 395 465 456 q 587 229 587 334 q 524 50 587 115 q 351 -16 460 -16 q 154 76 229 -16 q 79 340 79 169 q 140 576 79 474 q 311 733 200 678 q 566 788 421 788 q 903 693 753 788 q 1202 788 1034 788 q 1497 696 1368 788 q 1647 753 1565 736 q 1845 769 1729 769 l 2267 769 l 2267 669 l 2031 669 l 2031 0 l 1910 0 l 1910 669 l 1813 669 q 1671 659 1723 669 q 1578 627 1619 648 q 1685 461 1649 555 q 1721 263 1721 368 q 1663 56 1721 129 q 1496 -16 1604 -16 q 1326 56 1385 -16 q 1266 258 1266 128 q 1304 464 1266 368 q 1412 629 1341 560 q 1205 685 1318 685 q 984 630 1077 685 m 1491 568 q 1412 433 1440 514 q 1383 263 1383 353 q 1412 124 1383 171 q 1492 78 1440 78 q 1575 124 1546 78 q 1603 252 1603 171 q 1574 427 1603 345 q 1491 568 1546 509 m 903 563 q 833 432 858 510 q 808 263 808 353 q 836 124 808 171 q 916 78 864 78 q 999 124 970 78 q 1027 252 1027 171 q 995 426 1027 345 q 903 563 963 507 m 190 294 q 239 133 196 188 q 354 78 281 78 q 440 114 408 78 q 473 216 473 150 q 437 320 473 282 q 342 358 401 358 q 190 294 266 358 z "},"த":{"ha":1145,"x_min":66,"x_max":1078,"o":"m 222 769 l 948 769 l 948 669 l 688 669 l 688 455 q 982 369 886 450 q 1078 134 1078 289 q 1048 -10 1078 53 q 953 -124 1019 -73 q 794 -196 887 -174 q 533 -217 701 -217 l 378 -217 q 292 -224 323 -217 q 235 -247 260 -231 q 198 -292 210 -264 q 186 -365 186 -320 q 191 -441 186 -412 l 75 -446 q 66 -338 66 -382 q 96 -219 66 -268 q 183 -143 126 -170 q 340 -117 240 -117 l 490 -117 q 770 -92 678 -117 q 910 -9 863 -68 q 958 146 958 50 q 893 298 958 245 q 688 357 827 351 l 688 313 q 647 107 688 173 q 537 13 606 41 q 363 -16 467 -16 q 151 47 233 -16 q 68 216 68 110 q 106 341 68 290 q 222 421 144 392 l 222 769 m 460 456 l 570 456 l 570 669 l 331 669 l 331 448 q 460 456 388 456 m 570 359 l 451 359 q 250 325 312 359 q 188 213 188 292 q 237 119 188 153 q 373 85 287 85 q 525 136 480 85 q 570 296 570 188 l 570 359 z "},"ந":{"ha":1096,"x_min":66,"x_max":1029,"o":"m 191 -441 l 75 -446 q 66 -338 66 -382 q 96 -219 66 -268 q 183 -143 126 -170 q 340 -117 239 -117 l 439 -117 q 732 -89 642 -117 q 866 2 823 -60 q 909 188 909 65 q 869 347 909 291 q 758 402 830 402 q 604 342 680 402 l 604 0 l 484 0 l 484 669 l 242 669 l 242 0 l 122 0 l 122 769 l 846 769 l 846 669 l 604 669 l 604 450 q 694 493 655 482 q 777 503 734 503 q 958 418 888 503 q 1029 189 1029 334 q 1001 8 1029 81 q 909 -117 972 -65 q 750 -193 845 -170 q 481 -217 654 -217 l 377 -217 q 260 -233 298 -217 q 204 -279 222 -249 q 186 -365 186 -310 q 191 -441 186 -412 z "},"ன":{"ha":1714,"x_min":79,"x_max":1691,"o":"m 1228 669 q 1090 657 1152 669 q 990 623 1027 645 q 1105 460 1065 553 q 1145 263 1145 368 q 1087 56 1145 129 q 920 -16 1028 -16 q 750 56 810 -16 q 690 258 690 128 q 724 457 690 366 q 825 624 758 549 q 553 685 716 685 q 315 610 410 685 q 195 404 220 536 q 362 456 275 456 q 526 395 465 456 q 587 229 587 334 q 524 50 587 115 q 351 -16 460 -16 q 154 76 229 -16 q 79 340 79 169 q 140 576 79 474 q 311 733 200 678 q 566 788 421 788 q 910 692 750 788 q 1065 751 979 733 q 1268 769 1150 769 l 1691 769 l 1691 669 l 1455 669 l 1455 0 l 1335 0 l 1335 669 l 1228 669 m 904 564 q 832 430 857 508 q 808 263 808 353 q 836 124 808 171 q 916 78 864 78 q 999 124 970 78 q 1027 252 1027 171 q 996 425 1027 344 q 904 564 964 505 m 190 294 q 239 133 196 188 q 354 78 281 78 q 440 114 408 78 q 473 216 473 150 q 437 320 473 282 q 342 358 401 358 q 190 294 266 358 z "},"ப":{"ha":1080,"x_min":122,"x_max":958,"o":"m 958 769 l 958 0 l 122 0 l 122 769 l 242 769 l 242 100 l 838 100 l 838 769 l 958 769 z "},"ம":{"ha":1195,"x_min":122,"x_max":1107,"o":"m 122 0 l 122 769 l 242 769 l 242 100 l 555 100 l 555 493 q 583 666 555 605 q 665 757 610 726 q 805 788 721 788 q 1029 677 951 788 q 1107 364 1107 566 q 1088 205 1107 274 q 1026 90 1069 137 q 916 21 983 43 q 711 0 849 0 l 122 0 m 675 100 l 741 100 q 883 124 831 100 q 961 204 936 148 q 985 370 985 260 q 938 604 985 519 q 803 688 890 688 q 724 659 755 688 q 684 587 693 631 q 675 465 675 544 l 675 100 z "},"ய":{"ha":1337,"x_min":122,"x_max":1215,"o":"m 242 769 l 242 313 q 250 174 242 213 q 285 110 258 135 q 359 85 311 85 q 491 161 436 85 l 491 769 l 612 769 l 612 100 l 1095 100 l 1095 769 l 1215 769 l 1215 0 l 491 0 l 491 48 q 333 -16 424 -16 q 219 16 264 -16 q 148 105 174 47 q 122 268 122 163 l 122 769 l 242 769 z "},"ர":{"ha":889,"x_min":122,"x_max":866,"o":"m 866 769 l 866 669 l 631 669 l 631 0 l 321 -295 l 241 -220 l 510 34 l 510 669 l 242 669 l 242 0 l 122 0 l 122 769 l 866 769 m 414 -446 z "},"ற":{"ha":1215,"x_min":66,"x_max":1121,"o":"m 377 -217 q 260 -233 298 -217 q 204 -279 222 -249 q 186 -365 186 -310 q 191 -441 186 -412 l 75 -446 q 66 -338 66 -382 q 96 -219 66 -268 q 183 -143 126 -170 q 340 -117 239 -117 l 511 -117 q 822 -70 726 -117 q 958 75 918 -22 q 998 342 998 173 q 944 600 998 512 q 785 687 890 687 q 688 662 727 687 q 630 588 649 636 q 612 444 612 539 l 612 0 l 491 0 l 491 467 q 463 635 491 584 q 376 687 435 687 q 290 658 319 687 q 252 571 262 629 q 242 425 242 513 l 242 0 l 122 0 l 122 477 q 149 656 122 591 q 229 754 176 720 q 357 788 281 788 q 557 655 500 788 q 649 753 588 718 q 794 788 711 788 q 1036 671 950 788 q 1121 339 1121 555 q 1064 29 1121 151 q 885 -155 1008 -93 q 541 -217 763 -217 l 377 -217 z "},"ல":{"ha":1407,"x_min":79,"x_max":1320,"o":"m 1025 760 l 1133 833 q 1274 590 1229 712 q 1320 339 1320 469 q 1245 73 1320 163 q 1024 -16 1171 -16 q 807 75 877 -16 q 736 336 736 166 q 710 543 736 469 q 630 651 684 616 q 493 685 577 685 q 295 610 375 685 q 194 403 214 536 q 362 456 273 456 q 526 395 465 456 q 587 229 587 334 q 524 50 587 115 q 351 -16 460 -16 q 154 76 229 -16 q 79 340 79 169 q 133 578 79 477 q 282 734 186 680 q 498 788 378 788 q 710 736 630 788 q 824 601 790 684 q 857 362 857 518 q 877 196 857 252 q 934 114 897 141 q 1033 87 972 87 q 1157 147 1116 87 q 1199 329 1199 208 q 1155 558 1199 450 q 1025 760 1112 666 m 190 294 q 239 133 196 188 q 354 78 281 78 q 440 114 408 78 q 473 216 473 150 q 437 320 473 282 q 342 358 401 358 q 190 294 264 358 z "},"ள":{"ha":1487,"x_min":79,"x_max":1463,"o":"m 762 699 l 762 769 l 1463 769 l 1463 669 l 1227 669 l 1227 0 l 1107 0 l 1107 669 l 865 669 l 865 0 l 745 0 l 745 568 q 634 657 694 629 q 494 685 573 685 q 296 609 377 685 q 195 404 216 533 q 362 456 275 456 q 526 395 465 456 q 587 229 587 334 q 524 50 587 115 q 351 -16 460 -16 q 154 76 229 -16 q 79 340 79 169 q 133 578 79 477 q 285 734 186 680 q 506 788 383 788 q 643 767 582 788 q 762 699 704 747 m 190 294 q 238 133 196 188 q 354 78 280 78 q 440 114 408 78 q 473 216 473 150 q 437 320 473 282 q 342 358 401 358 q 190 294 264 358 z "},"ழ":{"ha":1195,"x_min":87,"x_max":1107,"o":"m 778 -231 q 766 -253 774 -235 q 692 -357 733 -317 q 585 -422 652 -397 q 408 -446 517 -446 l 374 -446 q 224 -424 294 -446 q 120 -358 153 -402 q 87 -258 87 -315 q 147 -132 87 -180 q 305 -84 206 -84 q 402 -92 356 -84 l 392 -184 q 323 -180 357 -180 q 237 -199 267 -180 q 207 -256 207 -218 q 252 -326 207 -302 q 383 -349 297 -349 l 418 -349 q 570 -318 511 -349 q 666 -212 629 -287 l 674 -196 q 555 0 560 -145 l 122 0 l 122 769 l 242 769 l 242 100 l 555 100 l 555 493 q 583 666 555 605 q 665 757 610 726 q 805 788 721 788 q 1029 677 951 788 q 1107 364 1107 566 q 1088 203 1107 272 q 1025 87 1069 134 q 913 21 981 41 q 730 0 845 0 l 674 0 q 694 -79 675 -51 q 750 -119 713 -108 q 849 -130 787 -130 l 1027 -130 l 1027 -231 l 778 -231 m 675 100 l 741 100 q 883 124 831 100 q 961 204 936 148 q 985 370 985 260 q 938 604 985 519 q 803 688 890 688 q 724 659 755 688 q 684 587 693 631 q 675 465 675 544 l 675 100 z "},"வ":{"ha":1451,"x_min":79,"x_max":1329,"o":"m 838 100 l 1207 100 l 1207 769 l 1329 769 l 1329 0 l 715 0 l 710 88 q 783 373 783 197 q 707 602 783 518 q 500 685 631 685 q 296 610 378 685 q 194 403 214 536 q 362 456 273 456 q 526 395 465 456 q 587 229 587 334 q 524 50 587 115 q 351 -16 460 -16 q 154 76 229 -16 q 79 340 79 169 q 132 577 79 476 q 282 733 184 677 q 506 788 380 788 q 802 681 698 788 q 906 389 906 573 q 890 244 906 313 q 838 100 874 176 m 190 294 q 239 133 196 188 q 354 78 281 78 q 440 114 408 78 q 473 216 473 150 q 437 320 473 282 q 342 358 401 358 q 190 294 264 358 z "},"ஶ":{"ha":1633,"x_min":122,"x_max":1511,"o":"m 242 769 l 242 340 q 257 191 242 243 q 311 112 273 140 q 421 85 350 85 q 533 115 494 85 q 586 196 572 144 q 600 340 600 248 l 600 769 l 1511 769 l 1511 324 q 1433 63 1511 142 q 1212 -16 1354 -16 q 1051 19 1119 -16 q 948 124 983 54 q 913 323 913 195 l 913 669 l 720 669 l 720 321 q 686 127 720 197 q 585 20 652 57 q 420 -16 517 -16 q 260 19 328 -16 q 157 124 192 54 q 122 318 122 195 l 122 769 l 242 769 m 1391 669 l 1034 669 l 1034 340 q 1049 191 1034 243 q 1103 112 1064 140 q 1213 85 1141 85 q 1324 115 1286 85 q 1377 196 1363 144 q 1391 340 1391 248 l 1391 669 z "},"ஷ":{"ha":1871,"x_min":79,"x_max":1763,"o":"m 1763 456 l 1763 0 l 1367 0 l 1267 -394 l 1157 -363 l 1249 0 l 715 0 l 710 88 q 783 373 783 197 q 707 602 783 518 q 500 685 631 685 q 296 610 378 685 q 194 403 214 536 q 362 456 273 456 q 526 395 465 456 q 587 229 587 334 q 524 50 587 115 q 351 -16 460 -16 q 154 76 229 -16 q 79 340 79 169 q 132 577 79 476 q 282 733 184 677 q 506 788 380 788 q 802 681 698 788 q 906 389 906 573 q 890 244 906 313 q 838 100 874 176 l 1274 100 l 1312 254 q 1097 340 1174 269 q 1021 534 1021 412 q 1087 716 1021 645 q 1262 788 1154 788 q 1427 728 1369 788 q 1485 564 1485 667 q 1456 355 1485 483 q 1650 456 1564 373 l 1763 456 m 1336 351 q 1364 559 1364 481 q 1338 654 1364 621 q 1262 688 1312 688 q 1170 646 1204 688 q 1136 531 1136 605 q 1187 404 1136 450 q 1336 351 1238 358 m 190 294 q 239 133 196 188 q 354 78 281 78 q 440 114 408 78 q 473 216 473 150 q 437 320 473 282 q 342 358 401 358 q 190 294 264 358 m 1655 337 q 1431 254 1563 267 l 1392 100 l 1651 100 l 1651 212 q 1655 337 1651 288 m 1201 -446 z "},"ஸ":{"ha":1784,"x_min":79,"x_max":1697,"o":"m 786 635 q 870 749 816 711 q 998 788 925 788 q 1172 715 1109 788 q 1234 477 1234 643 l 1234 362 q 1254 196 1234 252 q 1311 114 1274 141 q 1410 87 1349 87 q 1534 147 1493 87 q 1576 329 1576 208 q 1532 558 1576 450 q 1402 760 1489 666 l 1510 833 q 1651 590 1606 712 q 1697 339 1697 469 q 1622 73 1697 163 q 1401 -16 1548 -16 q 1186 72 1258 -16 q 1114 329 1114 159 l 1114 399 q 1100 588 1114 532 q 1059 665 1086 644 q 987 687 1031 687 q 898 632 932 687 q 865 488 865 576 l 865 0 l 745 0 l 745 416 q 713 565 745 505 q 623 655 682 626 q 494 685 565 685 q 296 609 377 685 q 195 404 216 533 q 362 456 275 456 q 526 395 465 456 q 587 229 587 334 q 524 50 587 115 q 351 -16 460 -16 q 154 76 229 -16 q 79 340 79 169 q 133 578 79 477 q 285 734 186 680 q 506 788 383 788 q 786 635 689 788 m 190 294 q 238 133 196 188 q 354 78 280 78 q 440 114 408 78 q 473 216 473 150 q 437 320 473 282 q 342 358 401 358 q 190 294 264 358 z "},"ஹ":{"ha":2254,"x_min":66,"x_max":2160,"o":"m 377 -217 q 260 -233 298 -217 q 204 -279 222 -249 q 186 -365 186 -310 q 191 -441 186 -412 l 75 -446 q 66 -338 66 -392 q 96 -218 66 -267 q 182 -143 125 -170 q 340 -117 239 -117 l 1549 -117 q 1861 -70 1765 -117 q 1997 75 1957 -23 q 2037 342 2037 172 q 1983 600 2037 513 q 1826 687 1930 687 q 1726 661 1765 687 q 1669 585 1687 634 q 1651 444 1651 536 l 1651 0 l 1530 0 l 1530 467 q 1502 635 1530 584 q 1415 687 1474 687 q 1329 658 1358 687 q 1291 571 1301 629 q 1281 425 1281 513 l 1281 0 l 715 0 l 710 88 q 783 373 783 197 q 707 602 783 518 q 500 685 631 685 q 296 610 378 685 q 195 404 215 536 q 362 456 275 456 q 526 395 465 456 q 587 229 587 334 q 524 50 587 115 q 351 -16 460 -16 q 154 76 229 -16 q 79 340 79 169 q 132 577 79 476 q 282 733 184 677 q 506 788 380 788 q 802 681 698 788 q 906 389 906 573 q 890 244 906 313 q 838 100 874 176 l 1161 100 l 1161 477 q 1188 656 1161 591 q 1267 754 1215 720 q 1396 788 1320 788 q 1596 655 1539 788 q 1688 753 1627 718 q 1833 788 1750 788 q 2075 671 1989 788 q 2160 339 2160 555 q 2103 29 2160 151 q 1924 -155 2047 -93 q 1580 -217 1802 -217 l 377 -217 m 190 294 q 239 133 196 188 q 354 78 281 78 q 440 114 408 78 q 473 216 473 150 q 437 320 473 282 q 342 358 401 358 q 190 294 266 358 z "},"ா":{"ha":889,"x_min":122,"x_max":866,"o":"m 122 769 l 866 769 l 866 669 l 631 669 l 631 0 l 510 0 l 510 669 l 242 669 l 242 0 l 122 0 l 122 769 z "},"ி":{"ha":364,"x_min":-419,"x_max":242,"o":"m -379 715 q -409 796 -398 751 q -419 884 -419 842 q -334 1095 -419 1019 q -110 1171 -248 1171 q 86 1115 3 1171 q 205 965 169 1060 q 242 697 242 869 l 242 0 l 122 0 l 122 654 q 99 897 122 815 q 22 1023 76 979 q -113 1066 -32 1066 q -250 1017 -200 1066 q -299 884 -299 968 q -252 715 -299 791 l -379 715 m -217 769 z "},"ீ":{"ha":0,"x_min":-593,"x_max":12,"o":"m -566 734 q -593 865 -593 791 q -498 1086 -593 1002 q -234 1171 -403 1171 q -53 1124 -118 1171 q 12 997 12 1077 q -38 871 12 917 q -170 826 -87 826 q -300 867 -252 826 q -349 979 -349 908 q -329 1070 -349 1027 q -446 997 -406 1050 q -486 870 -486 945 q -450 743 -486 795 l -566 734 m -231 1082 q -257 998 -257 1044 q -234 934 -257 956 q -170 911 -212 911 q -109 933 -131 911 q -86 991 -86 956 q -122 1059 -86 1036 q -224 1082 -158 1082 l -231 1082 m -217 769 z "},"ு":{"ha":706,"x_min":-304,"x_max":652,"o":"m 342 769 q 529 735 466 769 q 622 647 592 701 q 652 526 652 594 q 584 364 652 427 q 416 302 517 302 q 218 376 286 302 q 150 578 150 451 q 155 669 150 629 l -304 669 l -304 769 l 342 769 m 275 669 q 269 583 269 632 q 305 448 269 493 q 411 403 341 403 q 500 437 467 403 q 533 526 533 471 q 505 611 533 577 q 432 657 476 646 q 300 669 389 669 l 275 669 z "},"ூ":{"ha":1187,"x_min":-304,"x_max":1107,"o":"m 376 769 q 563 735 500 769 q 656 647 626 701 q 686 526 686 594 q 618 364 686 427 q 450 302 551 302 q 252 382 321 302 q 184 602 184 463 l 184 616 q 186 669 184 644 l -304 669 l -304 769 l 201 769 q 358 1021 242 931 q 637 1110 473 1110 q 887 1045 781 1110 q 1050 858 994 979 q 1107 579 1107 736 q 1041 255 1107 389 q 848 53 975 121 q 551 -16 722 -16 q 326 19 435 -16 q 126 121 216 54 l 190 216 q 540 84 359 84 q 870 212 754 84 q 986 578 986 339 q 944 801 986 703 q 822 952 901 899 q 632 1006 742 1006 q 433 945 514 1006 q 321 769 353 884 l 376 769 m 302 616 l 302 589 q 339 448 302 494 q 445 403 376 403 q 534 437 501 403 q 567 526 567 471 q 538 611 567 577 q 466 657 510 646 q 334 669 422 669 l 304 669 q 302 616 302 644 m 640 1171 z "},"ெ":{"ha":1252,"x_min":79,"x_max":1130,"o":"m 385 134 q 357 256 357 190 q 421 425 357 362 q 600 488 486 488 q 771 422 705 488 q 836 245 836 356 q 762 55 836 122 q 564 -13 688 -13 q 312 56 423 -13 q 140 250 201 125 q 79 532 79 374 q 159 866 79 720 q 376 1091 238 1011 q 669 1171 514 1171 q 927 1116 827 1171 q 1078 946 1027 1061 q 1130 615 1130 831 l 1130 0 l 1010 0 l 1010 524 q 993 792 1010 696 q 935 950 977 888 q 827 1039 892 1012 q 671 1066 762 1066 q 442 1001 553 1066 q 267 812 331 936 q 203 520 203 688 q 250 288 203 389 q 385 134 297 188 m 512 89 q 570 84 536 84 q 686 126 645 84 q 726 245 726 168 q 691 348 726 308 q 597 388 656 388 q 501 349 536 388 q 465 241 465 310 q 512 89 465 151 z "},"ே":{"ha":1011,"x_min":81,"x_max":962,"o":"m 532 99 q 490 256 490 170 q 550 422 490 359 q 711 486 610 486 q 879 421 814 486 q 943 245 943 356 q 858 55 943 123 q 637 -13 774 -13 q 348 59 477 -13 q 150 266 220 132 q 81 578 81 399 q 155 892 81 758 q 365 1099 230 1027 q 668 1171 500 1171 q 882 1106 801 1171 q 962 927 962 1042 q 898 760 962 821 q 731 699 834 699 q 569 758 629 699 q 509 918 509 817 q 561 1061 509 994 q 298 895 393 1022 q 204 582 204 768 q 290 267 204 393 q 532 99 375 140 m 674 1074 q 618 924 618 1011 q 649 830 618 864 q 733 797 680 797 q 820 833 787 797 q 852 927 852 869 q 804 1035 852 996 q 677 1074 756 1074 l 674 1074 m 656 84 q 785 127 736 84 q 833 245 833 170 q 801 348 833 309 q 713 388 768 388 q 629 349 660 388 q 598 241 598 311 q 645 84 598 148 l 656 84 z "},"ை":{"ha":1617,"x_min":79,"x_max":1522,"o":"m 977 640 q 1103 470 1061 566 q 1145 263 1145 374 q 1087 56 1145 129 q 920 -16 1028 -16 q 750 56 810 -16 q 690 258 690 128 q 722 455 690 365 q 822 627 754 545 q 553 685 703 685 q 315 610 410 685 q 195 404 220 536 q 362 456 275 456 q 526 395 465 456 q 587 229 587 334 q 524 50 587 115 q 351 -16 460 -16 q 154 76 229 -16 q 79 340 79 169 q 140 576 79 474 q 311 733 200 678 q 566 788 421 788 q 742 765 655 788 q 900 699 829 742 q 1013 764 945 739 q 1143 788 1080 788 q 1423 679 1324 788 q 1522 389 1522 570 q 1494 182 1522 279 q 1396 -16 1466 85 l 1295 45 q 1376 206 1352 125 q 1400 383 1400 288 q 1330 604 1400 523 q 1140 685 1261 685 q 977 640 1046 685 m 902 570 q 808 263 808 453 q 836 124 808 171 q 916 78 864 78 q 999 124 970 78 q 1027 252 1027 171 q 902 570 1027 456 m 190 294 q 239 133 196 188 q 354 78 281 78 q 440 114 408 78 q 473 216 473 150 q 437 320 473 282 q 342 358 401 358 q 190 294 266 358 z "},"ொ":{"ha":2371,"x_min":79,"x_max":2348,"o":"m 385 134 q 357 256 357 190 q 421 425 357 362 q 600 488 486 488 q 771 422 705 488 q 836 245 836 356 q 762 55 836 122 q 564 -13 688 -13 q 312 56 423 -13 q 140 250 201 125 q 79 532 79 374 q 159 866 79 720 q 376 1091 238 1011 q 669 1171 514 1171 q 927 1116 827 1171 q 1078 946 1027 1061 q 1130 615 1130 831 l 1130 0 l 1010 0 l 1010 524 q 993 792 1010 696 q 935 950 977 888 q 827 1039 892 1012 q 671 1066 762 1066 q 442 1001 553 1066 q 267 812 331 936 q 203 520 203 688 q 250 288 203 389 q 385 134 297 188 m 512 89 q 570 84 536 84 q 686 126 645 84 q 726 245 726 168 q 691 348 726 308 q 597 388 656 388 q 501 349 536 388 q 465 241 465 310 q 512 89 465 151 m 1457 505 q 1430 438 1457 465 q 1363 412 1403 412 q 1297 438 1323 412 q 1270 505 1270 464 q 1296 572 1270 545 q 1363 598 1322 598 q 1430 572 1404 598 q 1457 505 1457 545 m 1366 642 m 1363 240 m 1604 769 l 2348 769 l 2348 669 l 2112 669 l 2112 0 l 1992 0 l 1992 669 l 1724 669 l 1724 0 l 1604 0 l 1604 769 z "},"ோ":{"ha":2100,"x_min":81,"x_max":2077,"o":"m 532 99 q 490 256 490 170 q 550 422 490 359 q 711 486 610 486 q 879 421 814 486 q 943 245 943 356 q 858 55 943 123 q 637 -13 774 -13 q 348 59 477 -13 q 150 266 220 132 q 81 578 81 399 q 155 892 81 758 q 365 1099 230 1027 q 668 1171 500 1171 q 882 1106 801 1171 q 962 927 962 1042 q 898 760 962 821 q 731 699 834 699 q 569 758 629 699 q 509 918 509 817 q 561 1061 509 994 q 298 895 393 1022 q 204 582 204 768 q 290 267 204 393 q 532 99 375 140 m 674 1074 q 618 924 618 1011 q 649 830 618 864 q 733 797 680 797 q 820 833 787 797 q 852 927 852 869 q 804 1035 852 996 q 677 1074 756 1074 l 674 1074 m 656 84 q 785 127 736 84 q 833 245 833 170 q 801 348 833 309 q 713 388 768 388 q 629 349 660 388 q 598 241 598 311 q 645 84 598 148 l 656 84 m 1205 505 q 1178 438 1205 465 q 1112 412 1152 412 q 1045 438 1072 412 q 1019 505 1019 464 q 1045 572 1019 545 q 1112 598 1071 598 q 1179 572 1152 598 q 1205 505 1205 545 m 1114 642 m 1112 240 m 1333 769 l 2077 769 l 2077 669 l 1842 669 l 1842 0 l 1721 0 l 1721 669 l 1453 669 l 1453 0 l 1333 0 l 1333 769 z "},"ௌ":{"ha":2986,"x_min":79,"x_max":2963,"o":"m 385 134 q 357 256 357 190 q 421 425 357 362 q 600 488 486 488 q 771 422 705 488 q 836 245 836 356 q 762 55 836 122 q 564 -13 688 -13 q 312 56 423 -13 q 140 250 201 125 q 79 532 79 374 q 159 866 79 720 q 376 1091 238 1011 q 669 1171 514 1171 q 927 1116 827 1171 q 1078 946 1027 1061 q 1130 615 1130 831 l 1130 0 l 1010 0 l 1010 524 q 993 792 1010 696 q 935 950 977 888 q 827 1039 892 1012 q 671 1066 762 1066 q 442 1001 553 1066 q 267 812 331 936 q 203 520 203 688 q 250 288 203 389 q 385 134 297 188 m 512 89 q 570 84 536 84 q 686 126 645 84 q 726 245 726 168 q 691 348 726 308 q 597 388 656 388 q 501 349 536 388 q 465 241 465 310 q 512 89 465 151 m 1459 505 q 1432 438 1459 465 q 1365 412 1405 412 q 1299 438 1325 412 q 1272 505 1272 464 q 1298 572 1272 545 q 1365 598 1324 598 q 1432 572 1406 598 q 1459 505 1459 545 m 1368 642 m 1365 240 m 2262 699 l 2262 769 l 2963 769 l 2963 669 l 2727 669 l 2727 0 l 2607 0 l 2607 669 l 2365 669 l 2365 0 l 2245 0 l 2245 568 q 2133 657 2194 629 q 1993 685 2072 685 q 1796 609 1876 685 q 1694 404 1715 533 q 1862 456 1774 456 q 2025 395 1965 456 q 2086 229 2086 334 q 2023 50 2086 115 q 1851 -16 1960 -16 q 1653 76 1728 -16 q 1579 340 1579 169 q 1632 578 1579 477 q 1784 734 1686 680 q 2005 788 1883 788 q 2142 767 2081 788 q 2262 699 2203 747 m 1689 294 q 1737 133 1695 188 q 1853 78 1780 78 q 1940 114 1907 78 q 1972 216 1972 150 q 1937 320 1972 282 q 1842 358 1901 358 q 1689 294 1764 358 z "},"்":{"ha":0,"x_min":-479,"x_max":-293,"o":"m -293 1034 q -320 967 -293 994 q -387 941 -347 941 q -453 967 -427 941 q -479 1034 -479 993 q -453 1101 -479 1074 q -387 1127 -427 1127 q -319 1101 -346 1127 q -293 1034 -293 1074 m -384 1171 m -387 769 z "},"ௐ":{"ha":1613,"x_min":100,"x_max":1540,"o":"m 1113 388 q 1033 307 1061 359 q 1004 193 1004 256 q 1041 57 1004 113 q 1146 -25 1077 1 q 1333 -51 1215 -51 l 1461 -51 l 1461 -151 l 1194 -151 l 1175 -184 q 1061 -337 1123 -281 q 899 -419 998 -393 q 600 -446 800 -446 q 260 -382 369 -446 q 151 -182 151 -317 q 170 -77 151 -136 q 223 29 189 -18 l 320 -20 q 265 -184 265 -98 q 342 -307 265 -268 q 601 -345 420 -345 q 836 -326 753 -345 q 974 -259 919 -307 q 1081 -108 1029 -212 q 940 13 987 -62 q 892 191 892 89 q 928 336 892 266 q 1028 447 964 406 q 1171 488 1092 488 q 1237 480 1202 488 q 1192 307 1192 384 q 1307 188 1192 188 q 1391 229 1361 188 q 1421 340 1421 270 q 1270 594 1421 504 q 839 685 1118 685 q 463 645 612 685 q 252 525 313 604 q 310 550 276 541 q 370 559 343 559 q 524 502 468 559 q 581 346 581 444 q 519 177 581 238 q 352 117 458 117 q 228 148 286 117 q 135 238 170 178 q 100 379 100 298 q 137 537 100 469 q 264 666 175 605 q 489 758 354 728 q 836 788 623 788 q 1359 665 1177 788 q 1540 356 1540 543 q 1481 160 1540 231 q 1308 90 1421 90 q 1149 139 1206 90 q 1092 281 1092 189 q 1113 388 1092 344 m 210 399 l 210 389 q 250 257 210 304 q 359 211 291 211 q 437 243 408 211 q 467 334 467 276 q 434 427 467 393 q 347 461 402 461 q 210 399 276 461 m 771 192 q 753 148 771 165 q 709 130 734 130 q 665 148 683 130 q 648 192 648 165 q 665 236 648 218 q 709 254 683 254 q 753 236 736 254 q 771 192 771 218 m 416 -258 l 416 59 l 500 59 l 500 -193 l 615 -193 l 615 -68 q 627 13 615 -12 q 665 53 638 37 q 733 68 692 68 q 849 16 806 68 q 891 -112 891 -36 q 876 -188 891 -155 q 825 -239 861 -220 q 715 -258 789 -258 l 416 -258 m 699 -193 l 738 -193 q 790 -175 774 -193 q 807 -111 807 -157 q 786 -30 807 -61 q 734 1 766 1 q 699 -42 699 1 l 699 -193 z "},"ௗ":{"ha":1487,"x_min":79,"x_max":1463,"o":"m 762 699 l 762 769 l 1463 769 l 1463 669 l 1227 669 l 1227 0 l 1107 0 l 1107 669 l 865 669 l 865 0 l 745 0 l 745 568 q 634 657 694 629 q 494 685 573 685 q 296 609 377 685 q 195 404 216 533 q 362 456 275 456 q 526 395 465 456 q 587 229 587 334 q 524 50 587 115 q 351 -16 460 -16 q 154 76 229 -16 q 79 340 79 169 q 133 578 79 477 q 285 734 186 680 q 506 788 383 788 q 643 767 582 788 q 762 699 704 747 m 190 294 q 238 133 196 188 q 354 78 280 78 q 440 114 408 78 q 473 216 473 150 q 437 320 473 282 q 342 358 401 358 q 190 294 264 358 z "},"௦":{"ha":903,"x_min":81,"x_max":822,"o":"m 81 388 q 128 598 81 507 q 260 739 175 689 q 452 788 345 788 q 647 737 563 788 q 777 593 731 686 q 822 388 822 500 q 775 177 822 269 q 645 34 729 84 q 454 -16 560 -16 q 260 34 345 -16 q 128 176 175 83 q 81 388 81 268 m 205 386 q 271 165 205 246 q 451 85 337 85 q 632 165 566 85 q 699 386 699 245 q 632 606 699 524 q 452 687 566 687 q 271 607 338 687 q 205 386 205 526 z "},"௧":{"ha":1145,"x_min":68,"x_max":1078,"o":"m 222 769 l 948 769 l 948 669 l 688 669 l 688 456 l 726 456 q 994 392 910 456 q 1078 211 1078 328 q 1015 47 1078 105 q 836 -10 952 -10 q 767 -5 805 -10 q 699 10 729 1 l 724 102 q 819 87 773 87 q 924 119 890 87 q 958 217 958 150 q 905 323 958 288 q 720 359 851 359 l 688 359 l 688 313 q 647 107 688 173 q 537 13 606 41 q 363 -16 467 -16 q 151 47 233 -16 q 68 216 68 110 q 106 341 68 290 q 222 421 144 392 l 222 769 m 460 456 l 570 456 l 570 669 l 331 669 l 331 448 q 460 456 388 456 m 570 359 l 451 359 q 250 325 312 359 q 188 213 188 292 q 237 119 188 153 q 373 85 287 85 q 525 136 480 85 q 570 296 570 188 l 570 359 z "},"௨":{"ha":1482,"x_min":87,"x_max":1459,"o":"m 1459 100 l 1459 0 l 266 0 q 133 33 178 0 q 87 131 87 66 q 121 215 87 184 q 223 260 155 245 q 131 376 163 312 q 98 503 98 440 q 192 710 98 634 q 448 787 285 787 q 654 749 566 787 q 789 643 742 712 q 836 485 836 573 q 797 335 836 395 q 675 240 759 275 q 429 188 592 204 l 317 177 q 243 166 267 172 q 212 153 219 160 q 204 132 204 145 q 215 108 204 115 q 252 100 226 100 l 1459 100 m 414 285 q 591 321 527 297 q 686 384 654 345 q 717 485 717 422 q 645 629 717 572 q 455 686 572 686 q 281 638 342 686 q 220 503 220 590 q 255 380 220 439 q 356 279 290 321 l 414 285 z "},"௩":{"ha":1369,"x_min":122,"x_max":1345,"o":"m 122 769 l 840 769 l 840 669 l 597 669 l 597 445 q 774 503 680 503 q 941 446 878 503 q 1003 294 1003 388 q 938 100 1003 179 l 1345 100 l 1345 0 l 477 0 l 477 100 l 805 100 q 864 183 846 141 q 883 273 883 224 q 849 369 883 336 q 754 402 814 402 q 597 342 676 402 l 597 199 l 477 199 l 477 669 l 242 669 l 242 0 l 122 0 l 122 769 z "},"௪":{"ha":1307,"x_min":68,"x_max":1198,"o":"m 222 769 l 921 769 l 921 669 l 688 669 l 688 456 l 1078 456 l 1078 769 l 1198 769 l 1198 359 l 688 359 l 688 313 q 647 107 688 173 q 537 13 606 41 q 363 -16 467 -16 q 211 14 279 -16 q 105 95 142 43 q 68 216 68 148 q 106 341 68 290 q 222 421 144 392 l 222 769 m 460 456 l 570 456 l 570 669 l 331 669 l 331 448 q 460 456 388 456 m 570 359 l 451 359 q 250 325 312 359 q 188 213 188 292 q 237 119 188 153 q 373 85 287 85 q 525 136 480 85 q 570 296 570 188 l 570 359 z "},"௫":{"ha":1460,"x_min":94,"x_max":1392,"o":"m 984 395 q 1139 443 1053 443 q 1323 354 1254 443 q 1392 117 1392 265 q 1316 -186 1392 -59 q 1102 -380 1240 -313 q 791 -446 964 -446 l 777 -446 q 409 -354 562 -446 q 175 -85 255 -261 q 94 321 94 90 l 94 387 q 181 779 94 593 q 430 1067 267 964 q 816 1171 593 1171 q 1083 1135 956 1171 q 1368 1005 1210 1099 l 1303 904 q 1060 1030 1175 994 q 808 1066 945 1066 q 498 980 634 1066 q 288 733 361 893 q 214 356 214 572 l 214 339 q 280 -24 214 130 q 471 -258 345 -178 q 776 -339 597 -339 l 791 -339 q 1144 -220 1018 -339 q 1271 117 1271 -101 q 1231 284 1271 226 q 1118 342 1192 342 q 984 293 1055 342 l 984 0 l 864 0 l 864 669 l 623 669 l 623 0 l 502 0 l 502 769 l 1226 769 l 1226 669 l 984 669 l 984 395 z "},"௬":{"ha":1398,"x_min":68,"x_max":1368,"o":"m 1133 0 l 1133 359 l 967 359 l 967 0 l 854 0 l 854 359 l 688 359 l 688 313 q 647 107 688 173 q 537 13 606 41 q 363 -16 467 -16 q 151 47 233 -16 q 68 216 68 111 q 106 341 68 290 q 222 421 144 392 l 222 769 l 948 769 l 948 669 l 688 669 l 688 456 l 1368 456 l 1368 359 l 1245 359 l 1245 0 l 1133 0 m 460 456 l 570 456 l 570 669 l 331 669 l 331 448 q 460 456 388 456 m 570 359 l 451 359 q 250 325 312 359 q 188 213 188 292 q 237 119 188 153 q 373 85 287 85 q 525 136 480 85 q 570 296 570 188 l 570 359 z "},"௭":{"ha":1112,"x_min":79,"x_max":1089,"o":"m 1089 769 l 1089 669 l 854 669 l 854 0 l 733 0 l 733 669 l 610 669 q 398 644 477 669 q 266 556 320 619 q 196 404 212 492 q 362 456 275 456 q 526 395 465 456 q 587 229 587 334 q 524 50 587 115 q 351 -16 460 -16 q 154 74 229 -16 q 79 332 79 164 q 136 563 79 466 q 302 714 193 660 q 617 769 412 769 l 1089 769 m 190 294 q 237 134 194 189 q 354 78 279 78 q 440 114 408 78 q 473 216 473 150 q 437 320 473 282 q 342 358 401 358 q 190 294 264 358 z "},"௮":{"ha":1556,"x_min":41,"x_max":1435,"o":"m 1435 -214 l 1314 -214 l 1314 144 l 1093 144 q 862 -90 1026 -7 q 473 -172 698 -172 l 454 -172 q 151 -103 260 -172 q 41 83 41 -34 q 62 165 41 128 q 131 223 83 201 q 285 244 178 244 l 532 244 q 412 509 412 364 q 497 711 412 635 q 727 788 583 788 q 942 732 850 788 q 1084 575 1034 677 q 1135 350 1135 473 q 1124 244 1135 298 l 1314 244 l 1314 769 l 1435 769 l 1435 -214 m 690 244 l 1001 244 q 1015 349 1015 296 q 977 525 1015 448 q 873 645 940 603 q 725 687 807 687 q 587 638 640 687 q 535 503 535 590 q 690 244 535 356 m 475 -71 q 768 -17 644 -71 q 958 144 892 37 l 304 144 q 214 139 237 144 q 176 120 190 134 q 161 77 161 105 q 237 -33 161 6 q 454 -71 313 -71 l 475 -71 m 889 -446 z "},"௯":{"ha":1604,"x_min":68,"x_max":1536,"o":"m 222 769 l 948 769 l 948 669 l 688 669 l 688 456 l 918 456 q 956 454 938 456 q 1204 536 1060 536 q 1449 459 1361 536 q 1536 248 1536 381 q 1516 118 1536 179 q 1444 -16 1495 58 l 1348 43 q 1400 139 1384 93 q 1416 241 1416 185 q 1359 387 1416 334 q 1202 439 1301 439 q 1085 424 1131 439 q 1217 336 1173 394 q 1261 195 1261 277 q 1210 38 1261 93 q 1062 -16 1158 -16 q 899 42 959 -16 q 839 212 839 101 q 882 359 839 290 l 688 359 l 688 313 q 647 107 688 173 q 537 13 606 41 q 363 -16 467 -16 q 151 47 233 -16 q 68 216 68 110 q 106 341 68 290 q 222 421 144 392 l 222 769 m 570 669 l 331 669 l 331 448 q 460 456 388 456 l 570 456 l 570 669 m 451 359 q 250 325 312 359 q 188 213 188 292 q 237 119 188 153 q 373 85 287 85 q 525 136 480 85 q 570 296 570 188 l 570 359 l 451 359 m 994 355 q 943 201 943 296 q 975 110 943 141 q 1063 78 1006 78 q 1131 109 1107 78 q 1155 191 1155 139 q 1109 303 1155 261 q 994 355 1064 345 z "},"௰":{"ha":1215,"x_min":122,"x_max":1121,"o":"m 409 1105 q 679 1171 538 1171 q 1005 1020 890 1171 q 1121 543 1121 869 q 774 -16 1121 -16 q 636 18 694 -16 q 549 117 578 53 q 357 -16 492 -16 q 229 17 282 -16 q 149 115 176 51 q 122 295 122 180 l 122 769 l 242 769 l 242 335 q 272 134 242 184 q 370 85 302 85 q 461 139 431 85 q 491 305 491 193 l 491 769 l 612 769 l 612 328 q 633 177 612 224 q 693 107 655 130 q 777 85 731 85 q 946 198 892 85 q 1000 541 1000 312 q 920 935 1000 804 q 669 1066 840 1066 q 551 1050 610 1066 q 444 1005 492 1035 l 409 1105 z "},"௱":{"ha":1232,"x_min":122,"x_max":1208,"o":"m 122 0 l 122 503 q 148 663 122 606 q 218 752 173 720 q 333 785 263 785 q 491 721 424 785 l 491 769 l 1208 769 l 1208 669 l 973 669 l 973 0 l 852 0 l 852 669 l 611 669 l 611 0 l 491 0 l 491 608 q 359 684 436 684 q 303 672 327 684 q 264 634 280 661 q 245 568 249 607 q 242 456 242 530 l 242 0 l 122 0 z "},"௲":{"ha":1341,"x_min":66,"x_max":1327,"o":"m 991 0 l 878 0 l 878 359 l 688 359 l 688 313 q 647 107 688 173 q 537 13 606 41 q 363 -16 467 -16 q 211 14 279 -16 q 105 95 142 43 q 68 216 68 148 q 106 341 68 290 q 222 421 144 392 l 222 769 l 948 769 l 948 669 l 688 669 l 688 456 l 1171 456 l 1171 359 l 991 359 l 991 203 q 1057 234 1025 224 q 1135 243 1090 243 q 1272 186 1217 243 q 1327 46 1327 130 q 1285 -103 1327 -45 q 1162 -189 1242 -161 q 935 -217 1081 -217 l 377 -217 q 260 -233 298 -217 q 204 -279 222 -249 q 186 -365 186 -310 q 191 -441 186 -412 l 75 -446 q 66 -338 66 -382 q 134 -172 66 -227 q 340 -117 203 -117 l 932 -117 q 1144 -84 1082 -117 q 1207 36 1207 -52 q 1178 118 1207 86 q 1098 151 1149 151 q 991 115 1046 151 l 991 0 m 460 456 l 570 456 l 570 669 l 331 669 l 331 448 q 460 456 388 456 m 570 359 l 451 359 q 250 325 312 359 q 188 213 188 292 q 237 119 188 153 q 373 85 287 85 q 525 136 480 85 q 570 296 570 188 l 570 359 z "},"௳":{"ha":1369,"x_min":79,"x_max":1345,"o":"m 838 100 l 1345 100 l 1345 0 l 715 0 l 710 88 q 783 373 783 197 q 707 602 783 518 q 500 685 631 685 q 296 610 378 685 q 194 403 214 536 q 362 456 273 456 q 526 395 465 456 q 587 229 587 334 q 524 50 587 115 q 351 -16 460 -16 q 154 76 229 -16 q 79 340 79 169 q 132 577 79 476 q 282 733 184 677 q 506 788 380 788 q 802 681 698 788 q 906 389 906 573 q 890 244 906 313 q 838 100 874 176 m 190 294 q 239 133 196 188 q 354 78 281 78 q 440 114 408 78 q 473 216 473 150 q 437 320 473 282 q 342 358 401 358 q 190 294 264 358 z "},"௴":{"ha":1761,"x_min":122,"x_max":1738,"o":"m 1004 898 q 943 850 965 884 q 921 769 921 816 l 921 766 q 1059 624 1011 727 q 1107 364 1107 522 q 1088 205 1107 274 q 1026 90 1069 137 q 916 21 983 43 q 711 0 849 0 l 122 0 l 122 769 l 242 769 l 242 100 l 555 100 l 555 493 q 583 666 555 605 q 665 757 610 726 q 805 788 721 788 q 831 787 819 788 q 887 911 841 864 q 1015 976 933 958 q 1119 1119 1041 1068 q 1295 1171 1196 1171 q 1501 1105 1426 1171 q 1576 930 1576 1040 q 1537 769 1576 838 l 1738 769 l 1738 689 l 1424 689 l 1424 742 q 1461 828 1451 789 q 1472 914 1472 868 q 1425 1042 1472 994 q 1299 1089 1379 1089 q 1182 1061 1231 1089 q 1111 985 1133 1034 l 1145 985 q 1259 967 1219 985 q 1319 919 1299 949 q 1338 838 1338 888 q 1296 727 1338 768 q 1184 686 1253 686 q 1054 741 1104 686 q 1004 892 1004 795 l 1004 898 m 1093 909 l 1093 899 q 1095 850 1092 886 q 1119 791 1099 815 q 1181 767 1140 767 q 1233 784 1214 767 q 1252 833 1252 801 q 1226 891 1252 873 q 1133 909 1200 909 l 1093 909 m 675 100 l 741 100 q 883 124 831 100 q 961 204 936 148 q 985 370 985 260 q 938 604 985 519 q 803 688 890 688 q 724 659 755 688 q 684 587 693 631 q 675 465 675 544 l 675 100 z "},"௵":{"ha":3088,"x_min":94,"x_max":3000,"o":"m 2705 760 l 2814 833 q 2955 590 2909 712 q 3000 339 3000 469 q 2926 73 3000 163 q 2705 -16 2851 -16 q 2487 75 2557 -16 q 2417 336 2417 166 q 2357 687 2417 554 q 2170 903 2298 821 q 1837 1025 2043 986 q 1314 1063 1631 1063 q 489 892 762 1063 q 217 376 217 722 l 217 359 q 481 -162 217 15 q 1268 -339 745 -339 l 1296 -339 q 1954 -220 1738 -339 q 2171 139 2171 -101 q 2129 286 2171 229 q 2019 342 2088 342 q 1929 319 1975 342 l 1929 0 l 1809 0 l 1809 669 l 1588 669 l 1588 0 l 1069 0 l 1064 88 q 1137 373 1137 197 q 1061 602 1137 518 q 854 685 985 685 q 650 610 732 685 q 548 403 568 536 q 716 456 627 456 q 880 395 819 456 q 941 229 941 334 q 878 50 941 115 q 705 -16 814 -16 q 508 76 583 -16 q 433 340 433 169 q 486 577 433 476 q 636 733 538 677 q 860 788 734 788 q 1156 681 1052 788 q 1260 389 1260 573 q 1244 244 1260 313 q 1192 100 1228 176 l 1466 100 l 1466 769 l 2150 769 l 2150 669 l 1929 669 l 1929 419 q 2041 443 1982 443 q 2173 405 2115 443 q 2262 297 2230 366 q 2294 146 2294 228 q 2041 -295 2294 -144 q 1308 -446 1788 -446 l 1260 -446 q 621 -355 882 -446 q 227 -86 360 -263 q 94 342 94 92 l 94 393 q 231 818 94 642 q 634 1082 368 993 q 1288 1171 901 1171 l 1364 1171 q 1876 1127 1657 1171 q 2219 1008 2078 1087 q 2418 836 2342 939 q 2515 614 2486 743 q 2538 362 2538 514 q 2557 196 2538 252 q 2615 114 2577 141 q 2713 87 2652 87 q 2880 329 2880 87 q 2705 760 2880 572 m 544 294 q 593 133 550 188 q 708 78 635 78 q 794 114 762 78 q 827 216 827 150 q 791 320 827 282 q 696 358 755 358 q 544 294 618 358 z "},"௶":{"ha":1209,"x_min":54,"x_max":1087,"o":"m 602 -117 q 613 33 613 -65 l 613 48 q 455 -16 546 -16 q 341 16 387 -16 q 270 105 296 47 q 244 268 244 163 l 244 769 l 364 769 l 364 313 q 372 174 364 213 q 407 110 380 135 q 481 85 433 85 q 613 161 558 85 l 613 769 l 734 769 l 734 20 q 721 -117 734 -51 l 966 -117 l 966 456 l 1087 456 l 1087 -217 l 693 -217 q 544 -387 644 -327 q 311 -446 444 -446 q 129 -386 203 -446 q 54 -233 54 -326 q 75 -164 54 -191 q 128 -127 96 -138 q 230 -117 161 -117 l 602 -117 m 570 -217 l 218 -217 q 191 -219 200 -217 q 175 -230 181 -222 q 169 -250 169 -237 q 206 -319 169 -294 q 310 -345 243 -345 q 469 -313 407 -345 q 570 -217 532 -281 z "},"௷":{"ha":1940,"x_min":79,"x_max":1842,"o":"m 978 220 l 854 220 l 854 0 l 733 0 l 733 669 l 610 669 q 398 644 477 669 q 266 556 320 619 q 196 404 212 492 q 362 456 275 456 q 526 395 465 456 q 587 229 587 334 q 524 50 587 115 q 351 -16 460 -16 q 154 74 229 -16 q 79 332 79 164 q 136 563 79 466 q 302 714 193 660 q 617 769 412 769 l 1089 769 l 1089 669 l 854 669 l 854 296 l 991 296 q 1095 432 1018 382 q 1269 481 1173 481 q 1475 416 1400 481 q 1550 241 1550 351 q 1511 80 1550 149 l 1742 80 l 1742 468 l 1842 468 l 1842 0 l 1398 0 l 1398 53 q 1435 139 1424 100 q 1445 225 1445 179 q 1399 353 1445 305 q 1272 400 1352 400 q 1155 372 1204 400 q 1084 296 1106 345 l 1119 296 q 1233 278 1192 296 q 1292 230 1273 260 q 1312 149 1312 199 q 1269 38 1312 79 q 1158 -3 1227 -3 q 1028 52 1078 -3 q 978 203 978 106 l 978 220 m 190 294 q 237 134 194 189 q 354 78 279 78 q 440 114 408 78 q 473 216 473 150 q 437 320 473 282 q 342 358 401 358 q 190 294 264 358 m 1067 220 l 1066 210 q 1069 161 1065 197 q 1093 102 1072 126 q 1154 78 1114 78 q 1206 95 1187 78 q 1225 144 1225 112 q 1200 202 1225 184 q 1107 220 1174 220 l 1067 220 z "},"௸":{"ha":2732,"x_min":79,"x_max":2624,"o":"m 1571 88 q 1644 373 1644 197 q 1584 587 1644 504 q 1413 687 1524 669 q 1451 446 1451 572 q 1383 209 1451 291 q 1187 126 1316 126 q 1008 196 1076 126 q 941 395 941 266 q 1022 637 941 536 q 1244 774 1103 739 q 1024 996 1153 925 q 722 1066 896 1066 q 456 1000 576 1066 q 269 810 335 933 q 203 520 203 687 q 250 288 203 389 q 385 134 297 188 q 357 256 357 190 q 421 425 357 362 q 600 488 486 488 q 771 422 705 488 q 836 245 836 356 q 762 55 836 122 q 564 -13 688 -13 q 312 56 423 -13 q 140 250 201 125 q 79 532 79 374 q 161 869 79 724 q 394 1092 243 1014 q 733 1171 545 1171 q 1120 1071 951 1171 q 1377 788 1290 972 q 1667 676 1567 784 q 1767 389 1767 568 q 1751 244 1767 313 q 1699 100 1735 176 l 2135 100 l 2174 254 q 1958 340 2035 269 q 1882 534 1882 412 q 1948 716 1882 645 q 2123 788 2015 788 q 2288 728 2230 788 q 2346 564 2346 667 q 2317 355 2346 483 q 2511 456 2425 373 l 2624 456 l 2624 0 l 2228 0 l 2128 -394 l 2018 -363 l 2110 0 l 1576 0 l 1571 88 m 2197 351 q 2226 559 2226 481 q 2199 654 2226 621 q 2123 688 2173 688 q 2031 646 2065 688 q 1997 531 1997 605 q 2048 404 1997 450 q 2197 351 2099 358 m 1286 684 q 1119 586 1178 663 q 1061 392 1061 509 q 1094 264 1061 308 q 1188 220 1126 220 q 1295 279 1258 220 q 1331 446 1331 338 q 1286 684 1331 567 m 512 89 q 570 84 536 84 q 686 126 645 84 q 726 245 726 168 q 691 348 726 308 q 597 388 656 388 q 501 349 536 388 q 465 241 465 310 q 512 89 465 151 m 2517 337 q 2292 254 2424 267 l 2253 100 l 2512 100 l 2512 212 q 2517 337 2512 288 m 2056 -446 z "},"௹":{"ha":1460,"x_min":94,"x_max":1392,"o":"m 1040 854 l 1223 854 l 1223 774 l 926 774 l 926 817 q 963 884 953 852 q 974 952 974 916 q 932 1055 974 1020 q 808 1089 890 1089 q 633 1026 696 1089 q 700 1036 663 1036 q 805 999 766 1036 q 844 905 844 962 q 803 803 844 840 q 693 766 762 766 q 576 805 621 766 q 524 912 532 845 q 300 656 383 833 q 216 273 216 479 l 216 244 q 279 -65 216 68 q 464 -269 342 -198 q 758 -339 586 -339 l 773 -339 q 1141 -227 1013 -339 q 1270 99 1270 -114 q 1231 259 1270 203 q 1118 315 1192 315 q 984 268 1055 315 l 984 0 l 864 0 l 864 614 l 623 614 l 623 0 l 502 0 l 502 715 l 1226 715 l 1226 614 l 984 614 l 984 368 q 1139 416 1053 416 q 1323 329 1253 416 q 1392 95 1392 241 q 1319 -196 1392 -75 q 1103 -382 1245 -317 q 777 -446 962 -446 l 749 -446 q 396 -362 543 -446 q 172 -120 249 -279 q 94 242 94 38 l 94 277 q 149 602 94 447 q 306 866 204 757 q 536 1018 408 975 q 645 1128 567 1086 q 807 1171 723 1171 q 1007 1121 937 1171 q 1078 981 1078 1071 q 1040 854 1078 908 m 606 953 l 606 950 q 690 844 606 844 q 740 859 722 844 q 758 901 758 874 q 738 946 758 930 q 680 962 717 962 q 606 953 642 962 z "},"௺":{"ha":1687,"x_min":66,"x_max":1664,"o":"m 930 898 q 868 850 890 884 q 846 769 846 816 l 846 669 l 604 669 l 604 450 q 694 493 655 482 q 777 503 734 503 q 958 418 888 503 q 1029 189 1029 334 q 1001 8 1029 81 q 909 -117 972 -65 q 750 -193 845 -170 q 481 -217 654 -217 l 377 -217 q 260 -233 298 -217 q 204 -279 222 -249 q 186 -365 186 -310 q 191 -441 186 -412 l 75 -446 q 66 -338 66 -382 q 340 -117 66 -117 l 438 -117 q 678 -101 592 -117 q 813 -48 764 -85 q 884 44 863 -11 q 905 188 905 100 q 867 346 905 290 q 756 402 828 402 q 604 342 679 402 l 604 0 l 484 0 l 484 669 l 242 669 l 242 0 l 122 0 l 122 769 l 755 769 q 941 976 767 939 q 1044 1119 966 1068 q 1221 1171 1122 1171 q 1427 1105 1352 1171 q 1501 930 1501 1040 q 1463 769 1501 838 l 1664 769 l 1664 689 l 1350 689 l 1350 742 q 1387 828 1376 789 q 1397 914 1397 868 q 1351 1042 1397 994 q 1224 1089 1304 1089 q 1107 1061 1156 1089 q 1036 985 1058 1034 l 1071 985 q 1184 967 1144 985 q 1244 919 1225 949 q 1263 838 1263 888 q 1221 727 1263 768 q 1109 686 1179 686 q 980 741 1029 686 q 930 892 930 795 l 930 898 m 1019 909 l 1018 899 q 1021 850 1017 886 q 1045 791 1024 815 q 1106 767 1065 767 q 1158 784 1139 767 q 1177 833 1177 801 q 1152 891 1177 873 q 1059 909 1126 909 l 1019 909 z "},"!":{"ha":374,"x_min":100,"x_max":273,"o":"m 227 279 l 147 279 l 113 992 l 261 992 l 227 279 m 186 168 q 250 144 227 168 q 273 75 272 120 q 249 5 273 29 q 186 -19 225 -19 q 123 5 146 -19 q 100 75 100 28 q 122 144 100 120 q 186 168 144 168 z "},"\"":{"ha":592,"x_min":97,"x_max":495,"o":"m 251 1111 l 216 753 l 132 753 l 97 1111 l 251 1111 m 495 1111 l 460 753 l 376 753 l 342 1111 l 495 1111 m 306 992 m 299 1171 z "},"#":{"ha":897,"x_min":35,"x_max":863,"o":"m 667 606 l 624 383 l 814 383 l 814 290 l 606 290 l 550 0 l 450 0 l 507 290 l 310 290 l 254 0 l 157 0 l 210 290 l 35 290 l 35 383 l 228 383 l 272 606 l 86 606 l 86 699 l 289 699 l 345 991 l 444 991 l 389 699 l 587 699 l 644 991 l 742 991 l 685 699 l 863 699 l 863 606 l 667 606 m 328 383 l 525 383 l 568 606 l 371 606 l 328 383 z "},"%":{"ha":1154,"x_min":68,"x_max":1086,"o":"m 271 383 q 121 464 174 383 q 68 696 68 545 q 119 928 68 850 q 271 1006 170 1006 q 425 926 371 1006 q 479 696 479 846 q 426 462 479 541 q 271 383 373 383 m 271 471 q 351 527 324 471 q 378 696 378 583 q 351 864 378 808 q 271 920 324 920 q 194 863 218 920 q 170 696 170 807 q 194 528 170 584 q 271 471 218 471 m 906 992 l 356 0 l 249 0 l 799 992 l 906 992 m 878 -14 q 729 67 782 -14 q 675 299 675 148 q 726 531 675 454 q 878 608 777 608 q 1031 528 977 608 q 1086 299 1086 448 q 1033 65 1086 144 q 878 -14 980 -14 m 878 74 q 958 130 932 74 q 985 299 985 185 q 958 465 985 410 q 878 521 931 521 q 801 466 825 521 q 777 299 777 410 q 801 130 777 186 q 878 74 825 74 z "},"'":{"ha":348,"x_min":97,"x_max":306,"o":"m 251 1111 l 216 753 l 132 753 l 97 1111 l 251 1111 m 306 992 m 299 1171 z "},"(":{"ha":418,"x_min":56,"x_max":376,"o":"m 56 380 q 68 580 56 481 q 105 772 80 679 q 169 950 130 865 q 260 1112 207 1036 l 376 1112 q 232 767 281 955 q 183 381 183 580 q 196 189 183 285 q 232 1 208 93 q 292 -177 256 -91 q 375 -339 328 -262 l 260 -339 q 169 -182 207 -266 q 105 -7 130 -98 q 68 181 80 84 q 56 380 56 279 m 353 992 m 347 1171 m 264 0 m 279 -446 z "},")":{"ha":418,"x_min":41,"x_max":363,"o":"m 363 379 q 351 181 363 279 q 313 -7 338 84 q 249 -182 288 -99 q 158 -339 211 -266 l 43 -339 q 125 -177 90 -262 q 186 1 161 -91 q 222 189 210 93 q 235 381 235 284 q 186 767 235 579 q 41 1111 137 954 l 158 1111 q 249 950 211 1036 q 313 771 288 864 q 351 579 338 678 q 363 379 363 481 m 306 992 m 299 1171 m 129 0 m 144 -446 z "},"*":{"ha":765,"x_min":56,"x_max":708,"o":"m 450 1111 l 421 844 l 690 920 l 708 789 l 452 770 l 618 549 l 497 484 l 378 726 l 271 484 l 146 549 l 310 770 l 56 789 l 75 920 l 340 844 l 311 1111 l 450 1111 m 509 992 m 503 1171 z "},"+":{"ha":794,"x_min":71,"x_max":724,"o":"m 447 539 l 724 539 l 724 440 l 447 440 l 447 154 l 347 154 l 347 440 l 71 440 l 71 539 l 347 539 l 347 827 l 447 827 l 447 539 m 393 0 m 401 992 z "},",":{"ha":347,"x_min":43,"x_max":256,"o":"m 245 161 l 256 146 q 233 68 246 109 q 204 -16 220 26 q 171 -99 188 -58 q 136 -179 153 -141 l 43 -179 q 63 -93 53 -138 q 82 -4 73 -48 q 98 83 91 41 q 111 161 106 125 l 245 161 m 64 0 z "},"-":{"ha":447,"x_min":56,"x_max":392,"o":"m 56 315 l 56 429 l 392 429 l 392 315 l 56 315 m 220 769 m 220 0 z "},".":{"ha":372,"x_min":100,"x_max":272,"o":"m 100 75 q 106 119 100 101 q 125 148 113 137 q 152 164 136 159 q 186 170 168 170 q 219 164 203 170 q 247 148 235 159 q 265 119 258 137 q 272 75 272 101 q 265 32 272 50 q 247 3 258 14 q 219 -14 235 -9 q 186 -20 203 -20 q 152 -14 168 -20 q 125 3 136 -9 q 106 32 113 14 q 100 75 100 50 z "},"/":{"ha":545,"x_min":27,"x_max":517,"o":"m 517 1111 l 149 -339 l 27 -339 l 397 1111 l 517 1111 m 306 992 m 299 1171 m 264 0 m 279 -446 z "},":":{"ha":372,"x_min":64,"x_max":272,"o":"m 100 75 q 106 119 100 101 q 125 148 113 137 q 152 164 136 159 q 186 170 168 170 q 219 164 203 170 q 247 148 235 159 q 265 119 258 137 q 272 75 272 101 q 265 32 272 50 q 247 3 258 14 q 219 -14 235 -9 q 186 -20 203 -20 q 152 -14 168 -20 q 125 3 136 -9 q 106 32 113 14 q 100 75 100 50 m 100 669 q 106 714 100 696 q 125 743 113 732 q 152 759 136 754 q 186 764 168 764 q 219 759 203 764 q 247 743 235 754 q 265 714 258 732 q 272 669 272 696 q 265 627 272 644 q 247 597 258 609 q 219 581 235 586 q 186 575 203 575 q 152 581 168 575 q 125 597 136 586 q 106 627 113 609 q 100 669 100 644 m 64 769 z "},";":{"ha":372,"x_min":43,"x_max":272,"o":"m 245 161 l 256 146 q 233 68 246 109 q 204 -16 220 26 q 171 -99 188 -58 q 136 -179 153 -141 l 43 -179 q 63 -93 53 -138 q 82 -4 73 -48 q 98 83 91 41 q 111 161 106 125 l 245 161 m 100 669 q 106 714 100 696 q 125 743 113 732 q 152 759 136 754 q 186 764 168 764 q 219 759 203 764 q 247 743 235 754 q 265 714 258 732 q 272 669 272 696 q 265 627 272 644 q 247 597 258 609 q 219 581 235 586 q 186 575 203 575 q 152 581 168 575 q 125 597 136 586 q 106 627 113 609 q 100 669 100 644 m 64 769 m 64 0 z "},"<":{"ha":794,"x_min":70,"x_max":724,"o":"m 724 161 l 70 449 l 70 518 l 724 844 l 724 736 l 201 489 l 724 269 l 724 161 m 393 0 m 401 992 z "},"=":{"ha":794,"x_min":79,"x_max":715,"o":"m 79 578 l 79 676 l 715 676 l 715 578 l 79 578 m 79 301 l 79 400 l 715 400 l 715 301 l 79 301 m 393 0 m 401 992 z "},">":{"ha":794,"x_min":70,"x_max":724,"o":"m 70 269 l 593 488 l 70 736 l 70 844 l 724 518 l 724 449 l 70 161 l 70 269 m 393 0 m 401 992 z "},"?":{"ha":618,"x_min":52,"x_max":573,"o":"m 218 281 l 218 306 q 223 376 218 345 q 241 434 228 407 q 277 487 254 461 q 333 542 299 513 q 389 592 366 570 q 426 638 412 615 q 448 689 441 662 q 455 751 455 715 q 445 811 455 784 q 415 857 435 838 q 367 887 396 876 q 300 897 338 897 q 193 880 244 897 q 95 839 142 862 l 52 937 q 171 986 107 966 q 300 1006 235 1006 q 414 988 363 1006 q 500 939 465 971 q 554 859 535 906 q 573 753 573 812 q 564 672 573 707 q 536 606 555 636 q 491 547 518 575 q 427 486 464 518 q 370 433 392 456 q 334 389 347 410 q 317 345 321 368 q 312 293 312 323 l 312 281 l 218 281 m 185 75 q 192 119 185 101 q 210 148 199 137 q 237 164 222 159 q 271 170 253 170 q 305 164 289 170 q 332 148 321 159 q 351 119 344 137 q 357 75 357 101 q 351 32 357 50 q 332 3 344 14 q 305 -14 321 -9 q 271 -20 289 -20 q 237 -14 253 -20 q 210 3 222 -9 q 192 32 199 14 q 185 75 185 50 z "},"[":{"ha":441,"x_min":111,"x_max":386,"o":"m 386 -339 l 111 -339 l 111 1111 l 386 1111 l 386 1017 l 235 1017 l 235 -244 l 386 -244 l 386 -339 m 306 992 m 299 1171 m 264 0 m 279 -446 z "},"\\":{"ha":545,"x_min":28,"x_max":517,"o":"m 149 1111 l 517 -339 l 397 -339 l 28 1111 l 149 1111 m 306 992 m 299 1171 m 264 0 m 279 -446 z "},"]":{"ha":448,"x_min":55,"x_max":330,"o":"m 55 -244 l 206 -244 l 206 1017 l 55 1017 l 55 1111 l 330 1111 l 330 -339 l 55 -339 l 55 -244 m 170 992 m 163 1171 m 129 0 m 144 -446 z "},"^":{"ha":794,"x_min":55,"x_max":739,"o":"m 55 372 l 366 999 l 435 999 l 739 372 l 629 372 l 401 871 l 164 372 l 55 372 z "},"_":{"ha":617,"x_min":-3,"x_max":619,"o":"m 619 -214 l -3 -214 l -3 -125 l 619 -125 l 619 -214 m 186 0 m 188 -446 z "},"{":{"ha":513,"x_min":42,"x_max":458,"o":"m 340 598 q 299 458 340 509 q 181 390 259 407 l 181 382 q 299 313 259 365 q 340 174 340 262 l 340 -105 q 348 -171 340 -146 q 371 -212 356 -197 q 409 -232 387 -227 q 458 -238 431 -237 l 458 -339 q 361 -325 406 -338 q 284 -282 317 -311 q 234 -207 252 -252 q 216 -98 216 -162 l 216 177 q 204 250 216 220 q 171 298 193 279 q 117 325 149 317 q 42 333 84 333 l 42 438 q 171 474 127 438 q 216 594 216 509 l 216 869 q 234 979 216 934 q 284 1054 252 1024 q 361 1097 317 1083 q 458 1111 406 1110 l 458 1009 q 409 1003 431 1008 q 371 983 387 998 q 348 942 356 968 q 340 876 340 917 l 340 598 m 170 992 m 163 1171 m 129 0 m 144 -446 z "},"|":{"ha":765,"x_min":264,"x_max":433,"o":"m 332 1112 l 433 1112 l 433 -339 l 332 -339 l 332 1112 m 306 992 m 299 1171 m 264 0 m 279 -446 z "},"}":{"ha":513,"x_min":56,"x_max":471,"o":"m 174 174 q 214 314 174 262 q 332 382 254 365 l 332 390 q 214 458 254 407 q 174 598 174 510 l 174 877 q 165 943 174 918 q 142 983 157 968 q 105 1004 127 998 q 56 1010 83 1009 l 56 1111 q 152 1097 108 1110 q 229 1054 197 1083 q 279 979 261 1024 q 298 869 298 934 l 298 595 q 309 522 298 552 q 342 474 320 492 q 397 447 364 455 q 471 439 429 439 l 471 334 q 342 298 387 334 q 298 178 298 262 l 298 -98 q 279 -207 298 -162 q 229 -282 261 -252 q 152 -325 197 -311 q 56 -339 108 -338 l 56 -237 q 105 -231 83 -237 q 142 -211 127 -226 q 165 -171 157 -196 q 174 -104 174 -145 l 174 174 m 306 992 m 299 1171 m 332 0 m 347 -446 z "},"~":{"ha":794,"x_min":70,"x_max":724,"o":"m 374 443 q 329 461 349 454 q 291 473 309 469 q 259 479 274 477 q 229 481 243 481 q 188 474 209 481 q 147 457 168 468 q 106 431 126 446 q 70 399 87 416 l 70 507 q 237 581 138 581 q 276 579 256 581 q 316 572 295 577 q 363 558 338 567 q 420 536 388 550 q 465 518 445 526 q 503 506 486 511 q 535 500 520 502 q 564 498 550 498 q 606 505 585 498 q 648 522 627 511 q 688 548 669 533 q 724 581 707 563 l 724 473 q 649 418 690 437 q 557 399 608 399 q 518 400 538 399 q 477 407 499 402 q 431 421 456 412 q 374 443 406 429 z "},"­":{"ha":447,"x_min":56,"x_max":392,"o":"m 56 315 l 56 429 l 392 429 l 392 315 l 56 315 m 220 769 m 220 0 z "},"–":{"ha":694,"x_min":56,"x_max":639,"o":"m 56 315 l 56 429 l 639 429 l 639 315 l 56 315 m 220 769 m 220 0 z "},"—":{"ha":1389,"x_min":56,"x_max":1333,"o":"m 56 315 l 56 429 l 1333 429 l 1333 315 l 56 315 m 220 769 m 220 0 z "},"‘":{"ha":311,"x_min":50,"x_max":262,"o":"m 59 771 l 50 786 q 72 864 59 823 q 101 947 85 905 q 134 1031 117 989 q 169 1111 152 1073 l 262 1111 q 242 1025 252 1069 q 223 936 232 980 q 207 849 214 891 q 194 771 199 807 l 59 771 m 89 992 m 82 1171 z "},"’":{"ha":311,"x_min":50,"x_max":279,"o":"m 252 1111 l 262 1096 q 239 1018 252 1059 q 210 934 226 977 q 177 850 194 892 q 142 771 159 809 l 50 771 q 69 857 59 812 q 88 946 79 901 q 104 1033 97 991 q 117 1111 112 1075 l 252 1111 m 279 992 m 272 1171 z "},"“":{"ha":572,"x_min":50,"x_max":523,"o":"m 320 771 l 311 786 q 333 864 320 823 q 362 947 347 905 q 395 1031 378 989 q 430 1111 413 1073 l 523 1111 q 503 1025 513 1069 q 484 936 493 980 q 468 849 475 891 q 455 771 460 807 l 320 771 m 59 771 l 50 786 q 72 864 59 823 q 101 947 85 905 q 134 1031 117 989 q 169 1111 152 1073 l 262 1111 q 242 1025 252 1069 q 223 936 232 980 q 207 849 214 891 q 194 771 199 807 l 59 771 m 306 992 m 299 1171 z "},"”":{"ha":572,"x_min":50,"x_max":523,"o":"m 252 1111 l 262 1096 q 239 1018 252 1059 q 210 934 226 977 q 177 850 194 892 q 142 771 159 809 l 50 771 q 69 857 59 812 q 88 946 79 901 q 104 1033 97 991 q 117 1111 112 1075 l 252 1111 m 513 1111 l 523 1096 q 500 1018 513 1059 q 471 934 487 977 q 438 850 455 892 q 404 771 420 809 l 311 771 q 330 857 320 812 q 349 946 340 901 q 366 1033 358 991 q 378 1111 373 1075 l 513 1111 m 306 992 m 299 1171 z "},"…":{"ha":1117,"x_min":100,"x_max":1017,"o":"m 100 75 q 106 119 100 101 q 125 148 113 137 q 152 164 136 159 q 186 170 168 170 q 219 164 203 170 q 247 148 235 159 q 265 119 258 137 q 272 75 272 101 q 265 32 272 50 q 247 3 258 14 q 219 -14 235 -9 q 186 -20 203 -20 q 152 -14 168 -20 q 125 3 136 -9 q 106 32 113 14 q 100 75 100 50 m 472 75 q 479 119 472 101 q 497 148 486 137 q 524 164 509 159 q 558 170 540 170 q 592 164 576 170 q 619 148 608 159 q 637 119 631 137 q 644 75 644 101 q 637 32 644 50 q 619 3 631 14 q 592 -14 608 -9 q 558 -20 576 -20 q 524 -14 540 -20 q 497 3 509 -9 q 479 32 486 14 q 472 75 472 50 m 844 75 q 851 119 844 101 q 869 148 857 137 q 897 164 881 159 q 930 170 912 170 q 964 164 948 170 q 991 148 980 159 q 1010 119 1003 137 q 1017 75 1017 101 q 1010 32 1017 50 q 991 3 1003 14 q 964 -14 980 -9 q 930 -20 948 -20 q 869 3 894 -20 q 844 75 844 25 z "},"×":{"ha":794,"x_min":90,"x_max":704,"o":"m 397 559 l 635 798 l 704 726 l 468 490 l 703 254 l 633 183 l 396 418 l 164 183 l 92 254 l 326 490 l 90 725 l 163 798 l 397 559 m 393 0 m 401 992 z "},"÷":{"ha":794,"x_min":71,"x_max":724,"o":"m 397 810 q 453 789 433 810 q 473 726 473 768 q 452 663 473 685 q 397 642 431 642 q 340 664 361 642 q 319 726 319 686 q 397 810 319 810 m 71 440 l 71 539 l 724 539 l 724 440 l 71 440 m 397 336 q 453 315 433 336 q 473 253 473 294 q 453 190 473 212 q 397 168 432 168 q 339 190 359 168 q 319 253 319 212 q 397 336 319 336 m 393 0 m 401 992 z "},"−":{"ha":794,"x_min":70,"x_max":724,"o":"m 70 440 l 70 539 l 724 539 l 724 440 l 70 440 m 393 0 m 401 992 z "},"₹":{"ha":794,"x_min":100,"x_max":713,"o":"m 496 648 q 477 554 494 597 q 427 478 459 511 q 350 422 395 444 q 245 390 304 399 l 546 0 l 391 0 l 100 385 l 114 492 l 164 492 q 228 495 201 492 q 274 505 254 498 q 312 526 294 512 q 347 569 330 540 q 370 648 363 598 l 100 648 l 100 749 l 370 749 q 351 810 363 784 q 320 854 339 836 q 272 882 302 872 q 189 891 241 891 l 100 891 l 100 991 l 713 991 l 713 891 l 435 891 q 473 831 458 867 q 495 749 488 795 l 713 749 l 713 648 l 496 648 z "},"‌":{"ha":0,"x_min":-41,"x_max":41,"o":"m -41 -339 l -41 1046 l 41 1046 l 41 -339 l -41 -339 z "},"‍":{"ha":0,"x_min":-223,"x_max":223,"o":"m 56 877 l 223 713 l 168 659 l 41 785 l 41 -339 l -41 -339 l -41 785 l -168 659 l -223 713 l -56 877 l -223 1039 l -168 1094 l 0 929 l 168 1094 l 223 1039 l 56 877 z "},"◌":{"ha":780,"x_min":79,"x_max":700,"o":"m 433 633 q 390 589 433 589 q 345 633 345 589 q 390 676 345 676 q 433 633 433 676 m 235 557 q 192 512 235 512 q 148 557 148 512 q 192 600 148 600 q 235 557 235 600 m 631 557 q 588 512 631 512 q 543 557 543 512 q 588 600 543 600 q 631 557 631 600 m 700 366 q 656 321 700 321 q 612 366 612 321 q 656 410 612 410 q 700 366 700 410 m 168 366 q 123 321 168 321 q 79 366 79 321 q 123 410 79 410 q 168 366 168 410 m 235 176 q 192 132 235 132 q 148 176 148 132 q 192 220 148 220 q 235 176 235 220 m 631 176 q 588 132 631 132 q 543 176 543 132 q 588 220 543 220 q 631 176 631 220 m 433 100 q 390 56 433 56 q 345 100 345 56 q 390 144 345 144 q 433 100 433 144 m 389 769 m 389 0 z "},"।":{"ha":486,"x_min":244,"x_max":389,"o":"m 244 -68 l 244 837 l 364 837 l 364 -68 l 244 -68 m 389 769 m 389 0 z "},"॥":{"ha":791,"x_min":244,"x_max":669,"o":"m 244 -68 l 244 837 l 364 837 l 364 -68 l 244 -68 m 549 -68 l 549 837 l 669 837 l 669 -68 l 549 -68 m 457 769 m 457 0 z "}}}
